<svg version="1.2" xmlns="http://www.w3.org/2000/svg" viewBox="0 0 150 121" width="150" height="121">
	<title>New Project</title>
	<style>
		.s0 { fill: none;stroke: #21281b;stroke-width: 2 } 
		.s1 { fill: none;stroke: #485438;stroke-width: 2 } 
		.s2 { fill: none;stroke: #343e29;stroke-width: 2 } 
		.s3 { fill: none;stroke: #505938;stroke-width: 2 } 
		.s4 { fill: none;stroke: #242c1c;stroke-width: 2 } 
		.s5 { fill: none;stroke: #3f462e;stroke-width: 2 } 
		.s6 { fill: none;stroke: #535c3d;stroke-width: 2 } 
		.s7 { fill: none;stroke: #788556;stroke-width: 2 } 
		.s8 { fill: none;stroke: #646f47;stroke-width: 2 } 
		.s9 { fill: none;stroke: #434d36;stroke-width: 2 } 
		.s10 { fill: none;stroke: #1b2218;stroke-width: 2 } 
		.s11 { fill: none;stroke: #30391e;stroke-width: 2 } 
		.s12 { fill: none;stroke: #142116;stroke-width: 2 } 
		.s13 { fill: none;stroke: #1e2813;stroke-width: 2 } 
		.s14 { fill: none;stroke: #838684;stroke-width: 2 } 
		.s15 { fill: none;stroke: #7a7e7b;stroke-width: 2 } 
		.s16 { fill: none;stroke: #f0f2f4;stroke-width: 2 } 
		.s17 { fill: none;stroke: #e2e4e5;stroke-width: 2 } 
		.s18 { fill: none;stroke: #cacdcd;stroke-width: 2 } 
		.s19 { fill: none;stroke: #b3b6b6;stroke-width: 2 } 
		.s20 { fill: none;stroke: #d9dcdc;stroke-width: 2 } 
		.s21 { fill: none;stroke: #eef0f2;stroke-width: 2 } 
		.s22 { fill: none;stroke: #cfd1d2;stroke-width: 2 } 
		.s23 { fill: none;stroke: #d7d9da;stroke-width: 2 } 
		.s24 { fill: none;stroke: #b8bbbb;stroke-width: 2 } 
		.s25 { fill: none;stroke: #dddfe0;stroke-width: 2 } 
		.s26 { fill: none;stroke: #ebedee;stroke-width: 2 } 
		.s27 { fill: none;stroke: #aeb2b1;stroke-width: 2 } 
		.s28 { fill: none;stroke: #ced2d2;stroke-width: 2 } 
		.s29 { fill: none;stroke: #a8acab;stroke-width: 2 } 
		.s30 { fill: none;stroke: #c9cccc;stroke-width: 2 } 
		.s31 { fill: none;stroke: #e3e6e7;stroke-width: 2 } 
		.s32 { fill: none;stroke: #b9bdbd;stroke-width: 2 } 
		.s33 { fill: none;stroke: #525d34;stroke-width: 2 } 
		.s34 { fill: none;stroke: #5c6540;stroke-width: 2 } 
		.s35 { fill: none;stroke: #a2b069;stroke-width: 2 } 
		.s36 { fill: none;stroke: #94a459;stroke-width: 2 } 
		.s37 { fill: none;stroke: #8a9c4c;stroke-width: 2 } 
		.s38 { fill: none;stroke: #4f5a30;stroke-width: 2 } 
		.s39 { fill: none;stroke: #9ead65;stroke-width: 2 } 
		.s40 { fill: none;stroke: #90a154;stroke-width: 2 } 
		.s41 { fill: none;stroke: #839644;stroke-width: 2 } 
		.s42 { fill: none;stroke: #879949;stroke-width: 2 } 
		.s43 { fill: none;stroke: #c2cc8f;stroke-width: 2 } 
		.s44 { fill: none;stroke: #b9c585;stroke-width: 2 } 
		.s45 { fill: none;stroke: #d0d99f;stroke-width: 2 } 
		.s46 { fill: none;stroke: #99a85e;stroke-width: 2 } 
		.s47 { fill: none;stroke: #bcc788;stroke-width: 2 } 
		.s48 { fill: #353e2a } 
		.s49 { opacity: 1;fill: #727a51 } 
		.s50 { fill: #93a064 } 
		.s51 { opacity: 1;fill: #5c6a47 } 
		.s52 { fill: #2a3125 } 
		.s53 { fill: #0c120b } 
		.s54 { fill: #536031 } 
		.s55 { fill: #1b3021 } 
		.s56 { fill: #f9fafc } 
		.s57 { fill: #9b9f9e } 
		.s58 { fill: #a5a8a8 } 
		.s59 { fill: #b5b8b7 } 
		.s60 { fill: #c0c4c4 } 
		.s61 { fill: #cacdcd } 
		.s62 { fill: #cdd1d2 } 
		.s63 { fill: #dcdfe0 } 
		.s64 { fill: #e3e5e7 } 
		.s65 { fill: #e7eaeb } 
		.s66 { fill: #2f3d1b } 
		.s67 { fill: #3c462d } 
		.s68 { fill: #abb875 } 
		.s69 { fill: #98a85c } 
		.s70 { fill: #91a255 } 
		.s71 { fill: #7c903c } 
		.s72 { fill: #758932 } 
		.s73 { fill: #869847 } 
		.s74 { fill: #d9e0a9 } 
		.s75 { fill: #c7d194 } 
		.s76 { fill: #cdd69a } 
	</style>
	<path id="Layer" fill-rule="evenodd" class="s0" d="m101.7 28q-0.1 0.1-0.1 0.3-0.7 8-1.4 15.8-0.1 0.2-0.3 0.2l-7-0.2q-0.3-0.1-0.2-0.3 1.3-7.8 2.4-15.6 0.1 0 0 0 0-0.1 0-0.1 0 0 0 0 0 0 0 0h-3"/>
	<path id="Layer" fill-rule="evenodd" class="s1" d="m92.1 28.1l0.1-0.1"/>
	<path id="Layer" fill-rule="evenodd" class="s2" d="m66.6 28v0.1q0 0 0 0 0 0 0 0 0.1 0 0.1 0 0 0 0 0h25.4"/>
	<path id="Layer" fill-rule="evenodd" class="s0" d="m118.4 28q0.1 0.6 0 1.4 0 0.2 0.2 0.2 0 0 0 0 0 0 0 0 0 0 0 0 0-0.1 0-0.1l1.8-1.4"/>
	<path id="Layer" fill-rule="evenodd" class="s3" d="m142.6 28.1c0.1 0.1 0 0.2-0.1 0.3q-6.3 6.2-12.7 12.3-1.5 1.4-2.9 2.7-0.1 0-0.1 0 0 0.1 0 0.1 0 0 0 0 0 0 0 0 5.1 6.6 10 13.3"/>
	<path id="Layer" fill-rule="evenodd" class="s4" d="m136.8 56.8q2.6 3.6 5.2 7.2 0.3 0.4-0.2 0.3-5.4-0.7-10.7-1.5c-0.5 0-0.4 0.3-0.4 0.6q-0.9 14.9-2.5 29.9 0 0.2-0.2 0.2-0.1 0-0.3-0.1-3.7-1-7.4-2.1"/>
	<path id="Layer" fill-rule="evenodd" class="s3" d="m120.3 91.3q-0.4 0-0.7-0.2c-7.4-2.1-14.9-3.5-22.5-4.7q0 0 0 0 0 0-0.1 0 0 0 0 0 0 0 0 0l-0.6-1.9q-0.1-0.3-0.2 0l-0.4 1.6q0 0 0 0 0 0 0 0 0 0 0 0 0 0 0 0c-0.2 0.1-0.4 0.1-0.6 0.1q-2.5-0.3-5.1-0.6"/>
	<path id="Layer" fill-rule="evenodd" class="s0" d="m90.1 85.6l-12.7-0.9q-0.3 0-0.3-0.3 1.8-7.5 3.5-15c0.1-0.6-0.1-0.4-0.3-0.2q-2.6 2.5-5.2 5 0 0 0 0 0 0 0 0 0 0 0 0 0 0 0 0l-2.7 10.5q0 0 0 0 0 0 0 0 0 0 0 0 0 0 0 0-6.9 0.1-13.8 0.7"/>
	<path id="Layer" fill-rule="evenodd" class="s3" d="m58.6 85.4q-2.7 0.1-5.4 0.3c-0.4 0-0.5 0-0.4-0.4q1.9-6.4 3.7-12.7 0-0.1 0-0.1 0 0 0 0 0 0 0 0 0 0 0 0-0.6-1-1.3-2c-0.1-0.1-0.2-0.2-0.3 0q-1.7 5.4-2.2 7-0.5 1.5-0.9 2.3c-1.6 3.6-5.2 6.2-8.9 7.4q-0.6 0.1-2 0.4-4.8 1-9.7 2.2"/>
	<path id="Layer" fill-rule="evenodd" class="s0" d="m31.2 89.8q-1.9 0.4-6.1 1.5c-4.3 1.1-8.5-1.1-9.6-5.5-0.3-1.6-0.1-3 0.4-4.6q2.9-9.1 6-18.1c0.1-0.3 0.3-0.7 0.5-1q0.1-0.3-0.2-0.3l-7.5 1.1"/>
	<path id="Layer" fill-rule="evenodd" class="s5" d="m142.6 28.1h-22.2"/>
	<path id="Layer" fill-rule="evenodd" class="s6" d="m120.4 28.1l-0.1-0.1"/>
	<path id="Layer" fill-rule="evenodd" class="s7" d="m20.1 28v0.1"/>
	<path id="Layer" fill-rule="evenodd" class="s3" d="m20.1 28.1q-0.1 0-0.1 0 0 0 0 0 0 0 0 0-0.1 0-0.1 0 0 0.1 0 0.1-6.8 17.5-12.9 35.4-0.1 0.3 0.2 0.2l7.5-0.9"/>
	<path id="Layer" fill-rule="evenodd" class="s8" d="m14.7 62.9l0.1 0.3"/>
	<path id="Layer" fill-rule="evenodd" class="s9" d="m31.3 28v0.1"/>
	<path id="Layer" fill-rule="evenodd" class="s2" d="m31.3 28.1q0 0 0 0 0 0 0 0 0 0 0 0 0 0 0 0h-11.2"/>
	<path id="Layer" fill-rule="evenodd" class="s10" d="m63 28q0 0 0 0.1 0 0 0 0 0 0 0 0 0 0-0.1 0-15.4 0-30.9 0c-0.2 0-0.5-0.1-0.7 0"/>
	<path id="Layer" fill-rule="evenodd" class="s11" d="m95.8 77.9q0.1 0 0.1 0 0 0 0 0 0.1 0 0.1 0.1 0 0 0 0l2.2 6.6q0 0 0.1 0.1 0 0 0 0 0 0 0 0 0 0 0 0 5.9 0.9 11.6 2.1 0.1 0 0.1 0 0 0 0 0 0-0.1 0-0.1 0 0 0 0 1.1-1.7 2.1-3.3 0.2-0.4 0.2 0.2-0.2 1.7-0.4 3.4 0 0.2 0.2 0.2 7.2 1.7 14.3 3.8 0.3 0.1 0.3-0.2 1.5-14.7 2.4-29.5c0-0.4 0.2-0.4 0.5-0.3q4.2 0.5 8.5 1.1 0.3 0.1 0.2-0.2 0 0 0 0-6.7-9.3-13.6-18c-0.2-0.3-0.3-0.3 0-0.6q6.6-5.8 13.7-13c0.1-0.1 0-0.2-0.2-0.2q-8.5 0-17.1 0 0 0 0 0 0 0-0.1 0 0 0 0 0 0 0.1 0 0.1l-4.2 3.5q-0.3 0.3-0.3-0.1l0.2-3.3q0-0.1 0-0.1-0.1 0-0.1 0 0 0 0 0 0 0 0-0.1c-0.6 0-1.4 0-1.8 0q-5.9 0-11.6 0 0 0 0 0-0.1 0.1-0.1 0.1 0 0 0 0 0 0 0 0-0.6 8-1.5 16 0 0 0 0.1 0 0 0 0 0 0 0 0 0 0-0.1 0l-10.6-0.4q-0.3 0-0.3-0.3 1.4-7.6 2.5-15.2 0-0.3-0.2-0.3h-26.2q0 0-0.1 0 0 0 0 0.1 0 0 0 0 0 0 0 0l-4 15.5q0 0 0 0 0 0 0 0-0.1 0-0.1 0 0 0 0 0h-2.6q-0.1 0-0.1 0 0 0 0 0 0 0 0-0.1 0 0 0 0 2.2-7.6 4.4-15.1 0.1-0.4-0.3-0.4c-8.4 0.1-16.6 0-24.9 0q-0.1 0-0.1 0 0 0.1 0 0.1 0 0 0 0 0 0 0 0l-2.9 8.2q0 0 0 0 0 0-0.1 0 0 0 0 0 0 0.1 0 0.1l-3.5 0.1q-0.3 0-0.2-0.4l2.9-7.8q0.1-0.3-0.2-0.3h-13.6q0 0 0 0 0 0 0 0-0.1 0-0.1 0.1 0 0 0 0-0.2 0.2-0.3 0.6-6 15.2-11.4 30.7 0 0 0 0 0 0 0 0.1 0 0 0 0 0 0 0 0c0.1 0.3 0.3 0.2 0.5 0.1q7.1-0.9 14.2-1.8 0.1 0 0.1 0 0 0 0 0 0 0 0 0 0-0.1 0-0.1l3.2-8.8q0 0 0 0 0 0 0 0 0 0 0.1 0 0-0.1 0-0.1l3.7-0.2q0.4 0 0.3 0.3l-2.7 7.7q0 0 0 0 0 0 0 0 0 0 0 0 0 0 0 0.1c-0.6 0.2-1.2 0.4-1.7 0.7q-2.9 1.8-4 5.1-2.9 8.1-5.5 16.3c-0.4 1.2-0.6 2.1-0.6 3.2 0 3.5 2.9 5.7 6.2 5.5q0.6 0 1.9-0.4 7.9-2 16-3.6c4.1-0.8 7.9-3.5 9.4-7.5q0.2-0.3 0.7-1.9 1.6-4.9 3-9.7 0.2-0.4 0.4 0l3.6 5.7q0 0 0 0 0 0 0 0 0 0 0 0 0 0 0 0l-3.2 11.1q-0.1 0.4 0.3 0.4 6.9-0.6 13.8-0.8 0.9 0 1.8 0 0 0 0 0 0 0 0.1-0.1 0 0 0 0 0 0 0 0 1.2-4.7 2.4-9.3c0.1-0.5 0.6-0.8 1-1.2q4.4-4.2 8.7-8.4 0 0 0.1 0 0 0 0 0 0 0 0 0 0 0 0 0 0.2 0 0.1 0.2-1.9 9.3-4.1 18.6-0.1 0.3 0.2 0.3 7.4 0.3 14.8 1.2 0.1 0 0.1 0 0 0 0-0.1 0 0 0 0 0 0 0.1 0c0.1-0.5 1.3-6.2 1.3-6.2z"/>
	<path id="Layer" fill-rule="evenodd" class="s12" d="m36.6 31.3q0.1 0 0.1 0 0 0-0.1-0.1 0 0 0 0 0 0 0 0h-0.1q0 0 0 0 0 0-0.1 0 0 0 0 0 0 0 0 0l-1.8 5.2q0 0 0 0 0 0 0 0.1 0 0 0 0 0 0 0.1 0 0 0.1 0 0.1 0 0 0.1-0.1 0 0 0 0 0 0 0 0z"/>
	<path id="Layer" fill-rule="evenodd" class="s13" d="m29.2 52.7q0-0.1 0-0.1 0-0.1 0-0.1 0-0.1-0.1-0.1 0 0 0 0h-0.1q0-0.1-0.1-0.1 0 0 0 0.1-0.1 0-0.1 0-0.1 0.1-0.1 0.1l-1.7 4.8q0 0 0 0.1 0 0 0 0.1 0.1 0 0.1 0 0 0.1 0.1 0.1 0.1 0 0.1 0 0 0 0.1 0 0 0 0.1-0.1 0 0 0-0.1z"/>
	<path id="Layer" fill-rule="evenodd" class="s11" d="m11.7 59.5q0 0 0 0 0 0 0 0 0 0 0 0 0 0 0.1 0l11.4-1.5q0 0 0 0 0 0 0.1 0 0 0 0 0 0 0 0 0l3.2-9q0 0 0-0.1 0 0 0 0 0.1 0 0.1 0 0 0 0 0l6.7-0.4q0.4 0 0.3 0.3l-2.9 8.2q-0.1 0.2 0.2 0.2l11.5-1q0.1 0 0.1 0 0 0 0 0 0 0 0 0 0 0 0 0l8.4-25.4q0-0.1 0-0.1 0 0 0 0 0 0 0-0.1-0.1 0-0.1 0h-10.9q0 0 0 0 0 0-0.1 0.1 0 0 0 0 0 0 0 0l-2.8 8.2q0 0 0 0-0.1 0.1-0.1 0.1 0 0 0 0 0 0 0 0l-6.5 0.2q-0.3 0-0.2-0.3l2.9-8q0.1-0.3-0.1-0.3h-10.9q0 0 0 0 0 0 0 0.1 0 0 0 0 0 0 0 0-5.5 14.2-10.5 28.5-0.1 0.2 0.1 0.3z"/>
	<path id="Layer" fill-rule="evenodd" class="s11" d="m58 46.4q-0.1-0.1-0.1-0.3 2.3-7.6 4.5-15.3 0-0.1 0-0.1 0 0-0.1 0 0 0 0-0.1 0 0 0 0h-10.8q-0.1 0-0.1 0 0 0 0 0.1 0 0 0 0 0 0 0 0-0.2 0.4-0.3 0.8-2.5 7.9-5 15.9-0.4 1.2-0.5 1.4c-0.6 2.5 0 4.7 2.2 6.1 1.2 0.8 2.5 0.9 3.9 0.8q6.6-0.3 15-0.5 1.4 0 2-0.1c2.2-0.3 4.1-1.4 4.9-3.4q0.2-0.5 0.6-2 2.3-9.4 4.3-18.9 0-0.1 0-0.1 0 0 0 0 0 0 0-0.1-0.1 0-0.1 0h-10.7q0 0 0 0 0 0 0 0.1-0.1 0-0.1 0 0 0 0 0l-4 15.6q0 0 0 0 0 0 0 0 0 0 0 0 0 0-0.1 0l-5.4 0.1q0 0 0 0 0 0-0.1 0 0 0 0 0 0 0 0 0z"/>
	<path id="Layer" fill-rule="evenodd" class="s11" d="m115 35.9q-0.1-0.5 0-1c0.1-1.3 0.2-2.7 0.2-4q0-0.3-0.2-0.3h-10.5q-0.1 0-0.1 0 0 0 0 0.1 0 0 0 0 0 0 0 0-0.7 8.1-1.6 16.2 0 0 0 0.1 0 0 0 0 0 0 0 0 0 0-0.1 0c-4.4-0.1-8.9-0.4-13.4-0.5-0.4 0-0.3-0.2-0.3-0.5q1.3-7.5 2.5-15.1 0.1-0.3-0.2-0.3h-11.3q0 0 0 0 0 0-0.1 0.1 0 0 0 0 0 0 0 0-2.3 12.2-5.1 24.3 0 0.2 0.2 0.2 19 0.1 38 1.9 0.2 0 0.3-0.2 0.3-3.6 0.7-7.3c0-0.6 0.4-0.7 0.7-0.3q3.4 4.3 6.7 8.6 0 0 0 0 0 0 0 0 0 0 0 0 0 0 0 0l13.7 1.8q0.4 0.1 0.1-0.3-6.1-8.6-12.6-16.8-0.1 0-0.1 0 0 0 0-0.1 0 0 0 0 0.1 0 0.1 0 6.3-5.5 12.2-11.5c0.4-0.4 0-0.4-0.3-0.4q-6.5 0-12.9 0-0.1 0-0.1 0 0 0 0 0 0 0 0 0 0 0.1 0 0.1l-6.3 5.3q-0.2 0.1-0.2-0.1z"/>
	<path id="Layer" fill-rule="evenodd" class="s11" d="m119.9 59.1q0 0 0-0.1 0.1 0 0.1 0 0 0 0 0 0-0.1 0-0.1l-4.7-6q-0.1 0-0.1 0 0 0 0 0-0.1 0-0.1 0 0 0 0 0.1l-0.5 5.2q0 0 0 0.1 0 0 0 0 0 0 0 0 0 0 0 0z"/>
	<path id="Layer" fill-rule="evenodd" class="s11" d="m44.2 57q0 0 0 0l2.6-0.2q0.2 0 0-0.2-1.1-0.8-1.9-1.9-0.1-0.2-0.2 0-0.4 1-0.7 2.1-0.1 0.2 0.2 0.2z"/>
	<path id="Layer" fill-rule="evenodd" class="s11" d="m67.4 60.8q0.2 0.3 0.4 0 2.1-2.1 4.2-4.3 0.4-0.4 0.8-0.7 0 0 0 0 0 0 0 0 0 0 0.1 0 0 0 0 0 0.7 0.1 0.6-0.6 0-0.2-0.1-0.1c-2.3 2-4.8 2.2-7.7 2.2q-0.3 0-0.1 0.2z"/>
	<path id="Layer" fill-rule="evenodd" class="s11" d="m52.6 65.5q0 0 0 0-0.1 0-0.1-0.1 0 0 0 0 0-0.1 0-0.1 0.5-1.6 1-3.2c0-0.3 0.1-0.7 0.4-0.2q2.9 4.8 5.8 9.6 0 0 0.1 0 0 0 0 0 0 0 0 0.1 0 0 0 0l-2.9 10q0 0.2 0.2 0.2 6.4-0.5 12.8-0.6 0 0 0 0 0 0 0.1-0.1 0 0 0 0 0 0 0 0l2.3-9.1q0 0 0 0 0 0 0 0 0 0 0.1 0 0 0 0-0.1 6.6-6.3 12.9-12.7 0.5-0.4 0.4 0.1-2.2 10.9-4.7 21.8-0.1 0.2 0.2 0.2 6 0.4 12 1 0.1 0 0.1 0 0 0 0 0 0 0 0 0 0.1 0 0.1-0.1 1-4.9 2-9.8c0.1-0.1 0.2-0.3 0.3 0q1.8 5.3 3.6 10.7 0 0 0 0 0 0 0 0 0 0 0 0 0 0 0 0 5 0.8 10 1.8 0 0 0 0 0 0 0 0 0.1 0 0.1 0 0 0 0-0.1 2.3-3.9 4.7-7.9c0 0 0.1-0.1 0.2-0.1q0 0 0 0 0 0.1 0 0.1 0 0 0 0 0 0 0 0.1l-0.9 8.7q0 0 0 0.1 0 0 0 0 0 0 0 0 0.1 0 0.1 0 5.9 1.4 11.7 3.1 0.3 0.1 0.3-0.1 1.4-13.8 2.1-27.5 0-0.3-0.2-0.3-8.5-1.4-17.1-2.4-0.1 0-0.1 0 0 0 0 0 0 0 0 0.1 0 0 0 0l-4.3 8.9q-0.1 0.3-0.3 0 0-0.1-0.1-0.3-1.3-4.7-2.6-9.3 0 0 0-0.1 0 0-0.1 0 0 0 0 0 0 0 0 0-14.8-1.4-29.6-1.3 0 0 0 0 0 0 0 0 0 0 0 0-0.1 0-0.1 0l-5.6 5.9q-0.2 0.2-0.3 0l-3.4-5.8q0 0 0 0 0 0 0 0 0 0 0 0 0 0-0.1 0-15.7 0.4-31.2 2.2c-2.2 0.3-4.2 0.7-5.9 2.2-1.1 1-1.8 2.4-2.3 3.9-2 5.6-3.9 11.3-5.6 17-0.9 2.8 0.6 5.7 3.7 6q0.8 0.1 1.5-0.1 7.4-1.9 11.1-2.7 4.9-1.1 6.3-1.4c3.5-0.8 6.6-3.1 7.9-6.4q0.3-0.8 0.5-1.2 2.2-7 3.3-10.6c0.1-0.4-0.3-0.1-0.4-0.1z"/>
	<path id="Layer" fill-rule="evenodd" class="s11" d="m108.9 58.8q0 0 0 0 0 0 0 0 0 0-0.1 0 0-0.1 0-0.1l-4.4-0.3q0 0-0.1 0 0 0 0 0 0 0 0 0 0 0.1 0 0.1l1.7 6q0 0.1 0.1 0.1 0 0 0 0 0 0 0 0 0.1 0 0.1 0z"/>
	<path id="Layer" fill-rule="evenodd" class="s14" d="m35.6 45.5q0.3 0 0.2 0.3l-2.8 8.2q-0.1 0.3 0.2 0.3l7-0.6q0 0 0 0 0 0 0.1 0 0 0 0 0 0 0 0-0.1 3.6-10.7 7.1-21.6 0.1-0.2 0-0.2-0.2-0.1-0.4-0.1c-2.1 0-4.2 0.1-6.2 0q-0.1 0-0.1 0 0 0 0 0 0 0 0 0 0 0.1 0 0.1l-2.9 8.3q-0.1 0-0.1 0 0 0 0 0.1 0 0 0 0 0 0 0 0-5.5 0.2-11.1 0.4c-0.4 0-0.5 0-0.4-0.4q1.5-4.1 3-8.2 0.1-0.3-0.2-0.3h-6.4q0 0-0.1 0 0 0 0 0.1 0 0 0 0 0 0 0 0-4.7 12.2-9.1 24.4 0 0.1 0 0.1 0 0 0 0 0 0 0 0 0 0 0 0 0.1 0.2 0.3 0.2 3.4-0.5 6.9-0.9 0 0 0 0 0 0 0.1 0 0 0 0 0 0 0 0-0.1l3.3-9.2q0-0.1 0-0.1 0 0 0 0 0.1 0 0.1 0 0 0 0 0 5.6-0.3 11.2-0.7 0.2 0 0.3 0z"/>
	<path id="Layer" fill-rule="evenodd" class="s14" d="m46.9 49.8c0 1.9 1.5 3.4 3.3 3.3q9.8-0.4 17-0.5 1.2-0.1 1.7-0.2c1.4-0.3 2.6-1.3 3-2.7q2.1-8.8 4-17.6 0.1-0.4-0.2-0.4-3 0-6 0-0.2 0-0.5 0.1 0 0 0 0 0 0 0 0.1 0 0 0 0 0 0 0 0-0.2 0.5-0.5 1.7-1.7 6.8-3.5 13.5c-0.1 0.5-0.4 0.6-0.9 0.6q-2.6 0.1-8.7 0.2c-0.8 0-0.8-0.6-0.6-1.2q2.2-7.3 4.2-14.7 0.1-0.2-0.2-0.2c-2.1-0.1-3.9 0-6.3-0.1-0.3 0-0.3 0.2-0.3 0.5q-2.5 7.9-5 15.7-0.4 1.4-0.5 1.9z"/>
	<path id="Layer" fill-rule="evenodd" class="s15" d="m112.7 48.1q-0.1-0.6 0.4-0.9"/>
	<path id="Layer" fill-rule="evenodd" class="s14" d="m113.1 47.2l2.5-1.9q0 0 0 0 0 0 0 0 0.1 0 0.1 0 0 0 0 0.1l7.8 10q0 0 0 0 0.1 0 0.1 0.1 0 0 0 0 0 0 0 0l8.1 1q0.4 0 0.2-0.3-5.5-7.4-11.2-14.6-0.2-0.2 0-0.3 5.4-4.5 10.4-9.4 0.1-0.1-0.1-0.2c-0.3 0-0.8 0-1.1 0q-3.3 0-6.6 0 0 0 0 0 0 0 0 0 0 0 0 0 0 0 0 0-4.7 4.1-9.7 7.8-0.3 0.3-0.2-0.1 0.2-3.8 0.4-7.6 0 0 0 0 0 0 0 0 0 0 0 0 0-0.1-0.1-0.1c-0.4 0-1 0-1.4 0q-2.1 0-4.3 0c-0.2 0-0.6 0-0.9 0.1q-0.1 0-0.1 0 0 0 0 0 0 0 0 0 0 0 0 0-0.9 10.9-2.2 21.6-0.1 0.3 0.2 0.3 3.5 0.3 6.9 0.5c0.3 0.1 0.2-0.1 0.3-0.3q0.2-2.9 0.5-5.8"/>
	<path id="Layer" fill-rule="evenodd" class="s16" d="m113.1 47.2q-0.3 0 0-0.5 0 0 0-0.1 0.4-0.5 1.1-0.9"/>
	<path id="Layer" fill-rule="evenodd" class="s17" d="m114.2 45.7l1.5-1.2q0 0 0.1 0 0 0 0 0 0 0 0 0 0.1 0.1 0.1 0.1l1.4 1.9"/>
	<path id="Layer" fill-rule="evenodd" class="s16" d="m117.3 46.5l2 2.4q0 0 0 0 0 0 0 0 0.1 0 0.1 0 0 0 0 0 2.7 0.4 5.4 0.9c0.3 0 1.6 0.1 1.1-0.6q-1.7-2.1-2.1-2.7"/>
	<path id="Layer" fill-rule="evenodd" class="s17" d="m123.8 46.5l-4-5q-0.1-0.2 0.1-0.4l0.8-0.6"/>
	<path id="Layer" fill-rule="evenodd" class="s18" d="m120.7 40.5q4.6-3.8 8.8-7.9 0.3-0.3-0.1-0.3h-5.9q0 0 0 0 0 0 0 0 0 0 0 0.1 0 0 0 0-4.1 3.5-8.4 6.8"/>
	<path id="Layer" fill-rule="evenodd" class="s17" d="m115.1 39.2l-2.2 1.7q-0.2 0.2-0.2-0.2l0.1-3.1"/>
	<path id="Layer" fill-rule="evenodd" class="s18" d="m112.8 37.6c0.3-1.6 0.2-3.4 0.4-5q0-0.2-0.2-0.2l-5.4-0.1q0 0 0 0 0 0-0.1 0.1 0 0 0 0 0 0 0 0l-0.4 5.2"/>
	<path id="Layer" fill-rule="evenodd" class="s17" d="m107.1 37.6l-0.7 7"/>
	<path id="Layer" fill-rule="evenodd" class="s16" d="m106.4 44.6q-0.1 1.2-0.4 2.4-0.1 0.3 0.1 0.6c0.5 0.5 1.2 0.8 2 0.7 1-0.1 2.1 0.4 3.1 0.2q0.7-0.1 1.5-0.4"/>
	<path id="Layer" fill-rule="evenodd" class="s19" d="m112.8 37.6c-1.3 0-2.7-0.1-4-0.2q-1 0-1.7 0.2"/>
	<path id="Layer" fill-rule="evenodd" class="s19" d="m120.7 40.5c-0.1-0.5-0.5-0.5-0.8-0.6q-2.1-0.4-4.3-0.4-0.3 0-0.5-0.3"/>
	<path id="Layer" fill-rule="evenodd" class="s20" d="m123.8 46.5c-1.1 0.4-2.2 0.2-3.3 0.1q-0.7 0-1.9-0.2-0.6-0.1-1.3 0.1"/>
	<path id="Layer" fill-rule="evenodd" class="s20" d="m114.2 45.7q-1.2-0.5-2.5-0.4c-0.3 0-0.8-0.2-1.2-0.3-1 0-2-0.2-3-0.3q-0.5 0-1.1-0.1"/>
	<path id="Layer" fill-rule="evenodd" class="s14" d="m77.5 52.5c0.3 0.1 0.5 0.1 0.7 0.1q11.3 0.1 22.6 0.8 0.2 0 0.2-0.2l0.6-4.6q0.1-0.2-0.2-0.2l-14.5-0.6q-0.2 0-0.1-0.2l2.6-15.5q0-0.4-0.3-0.4c-1.2 0-2.5 0.1-3.6 0.1q-1.7 0-3.5-0.1-0.2 0-0.2 0.2-2 10.3-4.3 20.5 0 0 0 0 0 0 0 0.1 0 0 0 0 0 0 0 0z"/>
	<path id="Layer" fill-rule="evenodd" class="s17" d="m19.4 41.7l-1.7 4.4"/>
	<path id="Layer" fill-rule="evenodd" class="s21" d="m17.7 46.1l-1.4 3.7q-0.1 0.2 0.2 0.3 1 0.2 2 0c1.2-0.2 2.4-0.5 3.6-0.5q0 0 0.1 0 0 0 0 0 0 0 0 0 0 0 0-0.1l1.3-3.4"/>
	<path id="Layer" fill-rule="evenodd" class="s17" d="m23.5 46.1l0.1-0.4q0 0 0 0 0 0 0.1-0.1 0 0 0 0 0 0 0 0 5.9-0.5 11.8-0.6 0.2-0.1 1.1-0.2"/>
	<path id="Layer" fill-rule="evenodd" class="s21" d="m36.6 44.8q-0.2 1.3-0.7 2.6c-0.2 0.4-0.4 0.9 0.3 1q0.8 0 1.8-0.2c0.3 0 0.6 0.1 0.9 0q1.3-0.2 2.6-0.5 0 0 0 0 0 0 0 0 0 0 0 0 0 0 0 0l1.4-3.7"/>
	<path id="Layer" fill-rule="evenodd" class="s17" d="m42.9 44l1.2-3.8"/>
	<path id="Layer" fill-rule="evenodd" class="s22" d="m44.1 40.2l2.5-7.5q0.1-0.3-0.3-0.3l-5.1-0.1q0 0 0 0 0 0 0 0 0 0.1-0.1 0.1 0 0 0 0-0.1 0.2-0.2 0.6-1.3 3.6-2.6 7.3"/>
	<path id="Layer" fill-rule="evenodd" class="s17" d="m38.3 40.3l-0.1 0.4q0 0 0 0.1 0 0 0 0-0.1 0-0.1 0 0 0 0 0-6.3 0.2-12.6 0.3-0.2 0-0.2 0"/>
	<path id="Layer" fill-rule="evenodd" class="s18" d="m25.3 41.1l3.1-8.5q0.1-0.3-0.2-0.3l-5.2 0.1q0 0 0 0-0.1 0-0.1 0 0 0 0 0 0 0 0 0l-3.5 9.3"/>
	<path id="Layer" fill-rule="evenodd" class="s19" d="m25.3 41.1q-2.8 0.4-5.7 0.8-0.2 0-0.2-0.2"/>
	<path id="Layer" fill-rule="evenodd" class="s23" d="m42.9 44q-1.8 0.1-3.6 0.2c-0.5 0.1-1.2 0-1.8 0.1q-0.5 0.1-0.9 0.5"/>
	<path id="Layer" fill-rule="evenodd" class="s23" d="m23.5 46.1q-1.8 0-3.7 0.4-1.1 0.2-2.1-0.4"/>
	<path id="Layer" fill-rule="evenodd" class="s24" d="m44.1 40.2c-1.2-0.2-2.3-0.1-3.6 0.1-0.3 0.1-1.7 0.4-2 0.3q-0.1-0.1-0.2-0.3"/>
	<path id="Layer" fill-rule="evenodd" class="s25" d="m51.4 37.2l-1.6 5.3"/>
	<path id="Layer" fill-rule="evenodd" class="s26" d="m49.8 42.5l-1 2.9q0 0.2 0.2 0.3c1.8 0.4 3.4 0.1 5.6-0.1q0 0 0 0 0.1 0 0.1 0 0 0 0 0 0-0.1 0-0.1 0.1-0.1 0.2-0.4 0.4-1.5 0.8-2.9"/>
	<path id="Layer" fill-rule="evenodd" class="s25" d="m55.7 42.2l1.4-5"/>
	<path id="Layer" fill-rule="evenodd" class="s18" d="m57.1 37.2l1.4-4.7q0-0.1 0-0.1 0 0 0 0-0.1 0-0.1-0.1 0 0 0 0h-5.4q0 0 0 0-0.1 0-0.1 0.1 0 0 0 0 0 0 0 0l-1.5 4.8"/>
	<path id="Layer" fill-rule="evenodd" class="s27" d="m57.1 37.2q-0.7-0.2-1.2-0.1-1 0.2-2 0.2-1.2 0-2.5-0.1"/>
	<path id="Layer" fill-rule="evenodd" class="s28" d="m55.7 42.2q-0.9 0-2.2 0.2-1.7 0.3-3.7 0.1"/>
	<path id="Layer" fill-rule="evenodd" class="s23" d="m69.1 34.4l-1.4 5.6"/>
	<path id="Layer" fill-rule="evenodd" class="s26" d="m67.7 40c-0.6 2-1 4.1-1.7 6q-0.1 0.3 0.1 0.4c0.3 0.2 0.6 0.3 0.9 0.3q1.8 0 3.5 0.1 1.4 0.1 1.8-1.2 0.4-1.8 1.1-5.2"/>
	<path id="Layer" fill-rule="evenodd" class="s23" d="m73.4 40.4l1.3-5.5"/>
	<path id="Layer" fill-rule="evenodd" class="s18" d="m74.7 34.9l0.5-2.4q0 0 0 0 0-0.1 0-0.1 0 0-0.1 0 0 0 0 0h-5.4q0 0 0 0 0 0 0 0 0 0-0.1 0 0 0 0 0l-0.5 2"/>
	<path id="Layer" fill-rule="evenodd" class="s29" d="m74.7 34.9q-2.7-0.3-5.4-0.2-0.1 0-0.1 0 0 0 0 0 0 0 0 0 0-0.1 0-0.1-0.1-0.1-0.1-0.2"/>
	<path id="Layer" fill-rule="evenodd" class="s30" d="m73.4 40.4c-0.9-0.2-1.9 0-2.9 0q-0.8 0-1.7 0 0 0 0 0 0 0 0 0-0.1 0-0.1 0 0 0 0 0-0.3-0.3-0.7-0.2c-0.2 0-0.2 0-0.3-0.2"/>
	<path id="Layer" fill-rule="evenodd" class="s31" d="m81.3 37.9l-1.4 6.7q-0.1 0.3 0.2 0.3 0.5 0 1.1-0.1c0.4 0 0.9 0.2 1.4 0.2q1.4 0 2.9-0.1c0.3 0 0.5 0 0.8 0.1q0.3 0 0.3-0.3l1.2-6.8"/>
	<path id="Layer" fill-rule="evenodd" class="s22" d="m87.8 37.9l0.9-5.3q0-0.2-0.2-0.2c-2-0.1-4.1 0-6.1-0.1q0 0 0 0 0 0 0 0.1-0.1 0-0.1 0 0 0 0 0l-1 5.5"/>
	<path id="Layer" fill-rule="evenodd" class="s32" d="m87.8 37.9q-3 0.1-6 0 0 0 0 0 0 0 0 0 0 0 0 0 0 0 0 0.1l-0.2 0.1q0 0 0 0.1 0 0 0 0 0 0 0 0-0.1 0-0.1 0-0.2 0-0.2-0.3"/>
	<path id="Layer" fill-rule="evenodd" class="s33" d="m55.9 61.2l0.8 1.4"/>
	<path id="Layer" fill-rule="evenodd" class="s34" d="m56.7 62.6q2.5 4.2 5.1 8.3 0 0 0 0 0 0 0 0 0 0 0 0 0 0 0 0.1l-2.3 8.1q-0.1 0.3 0.3 0.3l8.4-0.4q0 0 0 0 0 0 0 0 0 0 0 0 0-0.1 0.1-0.1l2-8.2q0.1 0 0.1 0 0 0 0 0 0 0 0 0 0 0 0 0l12.3-12.1q0.3-0.3-0.1-0.3l-8.4-0.1q0 0-0.1 0 0 0 0 0 0 0 0 0 0 0 0 0l-7.1 7.5q-0.2 0.2-0.3 0-0.1-0.1-0.2-0.2-2.1-3.6-4.1-7.1 0 0 0 0 0 0 0-0.1-0.1 0-0.1 0 0 0 0 0l-7.5 0.4q-0.4 0-0.2 0.3l1.3 2.2"/>
	<path id="Layer" fill-rule="evenodd" class="s35" d="m56.7 62.6q0.2-0.2 0.4-0.1 0 0 0 0 0 0 0 0 0 0 0 0 0 0 0 0.1l1 1.4"/>
	<path id="Layer" fill-rule="evenodd" class="s36" d="m58.1 64l2.1 3.4"/>
	<path id="Layer" fill-rule="evenodd" class="s35" d="m60.2 67.4l1.4 2.1q0 0 0 0 0 0 0 0 0 0 0 0 0.1 0 0.1 0 3-0.1 6-0.3c1.2-0.1 2.3-0.1 3.5 0q0 0 0 0 0 0 0.1 0 0 0 0 0 0 0 0 0 1.2-1.1 2.2-2.4"/>
	<path id="Layer" fill-rule="evenodd" class="s36" d="m73.5 66.8l3.8-3.6"/>
	<path id="Layer" fill-rule="evenodd" class="s35" d="m77.3 63.2l2.2-2.2q0.3-0.2-0.1-0.3c-1.8-0.4-3.4-0.4-5.6-0.3q-0.6 0-0.9 0.2c-1 0.3-1.9 1.5-2.5 2.3"/>
	<path id="Layer" fill-rule="evenodd" class="s36" d="m70.4 62.9q-1.8 1.8-3.5 3.6c-0.4 0.5-0.4-0.2-0.5-0.3q-0.9-1.5-1.8-2.9"/>
	<path id="Layer" fill-rule="evenodd" class="s35" d="m64.6 63.3l-1.5-2.7q0 0 0 0 0 0 0 0-0.1 0-0.1 0 0 0 0 0-0.5-0.2-1.1-0.1c-1.9 0.2-4.2-0.4-6 0.7"/>
	<path id="Layer" fill-rule="evenodd" class="s37" d="m64.6 63.3q-3.3 0-6.5 0.7"/>
	<path id="Layer" fill-rule="evenodd" class="s37" d="m77.3 63.2c-1.1-0.9-2.2-0.4-3.5-0.5-1.1 0-2.4 0-3.4 0.2"/>
	<path id="Layer" fill-rule="evenodd" class="s37" d="m73.5 66.8q-0.3 0.1-0.6 0.4 0 0 0 0 0 0 0 0 0 0 0 0 0 0 0 0-4.5 0-8.9 0.3-1.1 0-3.8-0.1"/>
	<path id="Layer" fill-rule="evenodd" class="s38" d="m95.4 63.5q0.1-0.1 0.2 0.1"/>
	<path id="Layer" fill-rule="evenodd" class="s34" d="m95.6 63.6l5.8 17.6q0 0 0 0 0.1 0 0.1 0 0 0 0 0 0 0 0 0l7.4 1.3q0.1 0 0.1 0 0 0 0 0 0 0 0 0 0 0 0 0 4.9-8 9-16.3 0.1-0.1 0.2-0.1 0 0 0 0.1 0 0 0 0 0 0 0 0 0 0 0 0l-1.6 17.9q0 0 0 0.1 0 0 0 0 0 0 0 0 0.1 0 0.1 0l7.7 2.1q0.2 0.1 0.2-0.2 1.2-11.6 1.9-23.2 0-0.3-0.1-0.5 0 0 0 0 0 0 0 0 0 0 0 0-0.1 0-0.1 0-7-1.1-14-1.9 0 0 0 0-0.1 0-0.1 0 0 0 0 0 0 0 0 0-2.9 6.4-6.2 12.6-0.2 0.3-0.3 0l-3.9-13.7q0 0 0 0 0 0-0.1 0 0 0 0 0 0 0 0 0-6.6-0.5-13.2-0.9-0.3 0-0.4 0.3-2 10.2-4.3 20.4 0 0 0 0 0 0 0 0 0 0.1 0 0.1 0 0 0.1 0l8.1 0.6q0 0 0 0 0 0 0.1 0 0 0 0 0 0 0 0 0l3.3-16.4"/>
	<path id="Layer" fill-rule="evenodd" class="s39" d="m95.6 63.6c0.1-0.5 0.3-0.3 0.4 0q0.5 1.5 1.1 3"/>
	<path id="Layer" fill-rule="evenodd" class="s40" d="m97.1 66.6q0.4 1.1 0.6 2.2c0.1 0.4 0.6 0.7 0.9 0.8q2.1 0.4 5.4 0.8c0.3 0 0.4-0.2 0.3-0.5q-0.4-1.3-0.8-2.6"/>
	<path id="Layer" fill-rule="evenodd" class="s39" d="m103.5 67.3q-0.5-2.1-1.1-4.1c-0.1-0.4-0.1-0.6-0.5-0.7-1.9-0.3-4.1-0.5-5.9-0.6q-0.6-0.1-1.2-0.2c-2-0.4-3.9-0.4-6.1-0.5q-0.3 0-0.5 0.4 0 0 0 0 0 0 0 0 0 0-0.1 0 0 0 0 0-0.1 0.1-0.2 0.2-0.1 0.6-0.2 1.3"/>
	<path id="Layer" fill-rule="evenodd" class="s36" d="m87.7 63.1q-0.2 1.9-0.6 3.7c-0.1 0.5-0.2 0.9 0.4 1q3.1 0.3 6.2 0.5 0.2 0 0.2-0.2l0.9-4.5"/>
	<path id="Layer" fill-rule="evenodd" class="s39" d="m94.8 63.6q0.1-0.4 0.5-0.2 0 0 0 0 0 0 0.1 0 0 0 0 0.1 0 0 0 0"/>
	<path id="Layer" fill-rule="evenodd" class="s41" d="m103.5 67.3q-0.3-0.2-0.5-0.4 0 0 0 0 0 0 0 0 0 0 0-0.1 0 0 0 0-0.3 0-0.7 0-1.3-0.1-4.1-0.5-0.2-0.1-0.3-0.2 0 0 0 0-0.1 0-0.1 0 0 0 0 0 0 0 0 0-0.4 0.1-0.7 0.5"/>
	<path id="Layer" fill-rule="evenodd" class="s42" d="m94.8 63.6q-3.5-0.6-7.1-0.5"/>
	<path id="Layer" fill-rule="evenodd" class="s34" d="m32.3 65.9q0 0 0 0 0 0 0 0 0 0 0 0 0 0 0 0 8.9-1.3 17.7-2 0.1 0 0.1 0 0 0 0 0 0 0 0 0 0-0.1 0-0.1l1.5-4.7q0 0 0 0 0-0.1 0-0.1 0 0 0 0 0 0 0 0c-0.2-0.2-0.4-0.1-0.6-0.1q-10.3 0.6-20.6 1.9-1.5 0.2-2.8 1c-1.4 1-1.9 2.5-2.5 4.1q-2.9 8.6-5.3 16c-0.3 1.1-0.6 2.8 0.5 3.6 0.8 0.6 1.9 0.5 2.8 0.2q8-2.1 16-3.7c3.8-0.7 6.8-2.7 8-6.6q1.2-3.7 2.4-7.4c0.1-0.5-0.3-0.4-0.6-0.4q-6.7 0.7-13.3 1.6 0 0 0 0 0 0 0 0 0 0-0.1 0 0 0 0 0c-0.4 1.3-1.5 3.5 0.5 4.1q0.5 0.2 0.9 0.1 1.6-0.2 3.2-0.4 0.2 0 0.2 0.2-0.4 1.4-0.9 2.7c-0.2 0.5-0.3 1-0.9 1.1q-4.7 0.8-9.3 1.7c-0.6 0.1-1.1-0.1-0.9-0.7q2-6.1 4-12.1z"/>
	<path id="Layer" fill-rule="evenodd" class="s11" d="m32.1 76.2q0 0 0.1 0 0 0 0 0 0 0 0.1 0 0 0 0 0 1.6-0.3 3.3-0.6 0.1-0.1 0-0.2 0 0 0 0 0 0 0 0 0 0 0 0 0 0 0 0-2-1.1-2.1-3.4 0-0.1-0.1-0.1 0 0 0 0 0 0 0 0 0 0 0 0 0 0.1 0 0.1-0.6 2-1.3 4-0.1 0.1 0 0.2z"/>
	<path id="Layer" fill-rule="evenodd" class="s43" d="m60.3 78.7q0.2 0.1 0.3 0.1 3.6-0.3 7.1-0.3 0 0 0-0.1 0 0 0.1 0 0 0 0 0 0 0 0 0l2-7.7q0-0.1 0-0.1 0 0 0 0 0 0 0 0 0-0.1-0.1-0.1c-0.4-0.1-0.7-0.3-1.2-0.3q-2.6 0.1-5.3 0.4c-0.7 0-0.9 0.9-1.1 1.5-0.5 2.2-1.2 4.4-1.8 6.5q0 0 0 0 0 0.1 0 0.1 0 0 0 0 0 0 0 0z"/>
	<path id="Layer" fill-rule="evenodd" class="s36" d="m107.8 71c0.3 0.1 0.6 0.3 0.9 0.4q2.1 0.5 4.1 1c0.5 0.1 0.9 0.1 1.3 0.1q0.1 0 0.1 0 0 0 0 0 0 0 0 0 0 0 0 0 1.6-3 3.2-5.9c0.1-0.3 0.4-0.5 0-0.8-1.1-0.6-2-0.8-3.6-1q-1.4-0.3-2.9-0.5 0 0 0 0 0 0 0 0 0 0.1-0.1 0.1 0 0 0 0-1.3 3.2-3 6.3-0.2 0.2 0 0.3z"/>
	<path id="Layer" fill-rule="evenodd" class="s36" d="m118.1 73.2c-0.1 0.6 0.3 0.8 0.7 1 0.7 0.2 1.4 0.4 2.1 0.7 1.2 0.6 2.6 1.3 3.9 1.3q0.2 0 0.2-0.2 0.2-3.4 0.5-6.7 0 0 0 0 0 0 0-0.1 0 0 0 0 0 0 0 0-2.2-0.5-4.5-1.1c-0.9-0.2-1.5-0.3-2.3-0.2q-0.1 0-0.1 0 0 0 0 0 0 0 0 0 0 0.1 0 0.1-0.1 2.6-0.5 5.2z"/>
	<path id="Layer" fill-rule="evenodd" class="s43" d="m85.8 72.8l-1.3 5.7q0 0.2 0.2 0.2 3.2 0.3 6.5 0.5 0.2 0.1 0.3 0.1 0.1 0 0.1 0 0-0.1 0-0.1 0 0 0 0 0 0 0 0l1.2-5.6"/>
	<path id="Layer" fill-rule="evenodd" class="s44" d="m92.8 73.6l0.3-1.9q0 0 0-0.1 0 0 0 0 0 0 0 0-0.1 0-0.1 0c-0.4-0.1-0.9-0.3-1.3-0.3q-2.1-0.1-4.1-0.3-0.7-0.1-1.3 0 0 0 0 0 0 0 0 0 0 0-0.1 0 0 0 0 0l-0.4 1.8"/>
	<path id="Layer" fill-rule="evenodd" class="s45" d="m92.8 73.6q-1.5-0.3-3-0.5c-1.2-0.1-2.6-0.3-4-0.3"/>
	<path id="Layer" fill-rule="evenodd" class="s43" d="m100.3 76l1.6 4.6q0 0 0 0 0 0 0 0.1 0 0 0 0 0 0 0 0l6.7 1.2q0.1 0 0.1 0 0 0 0 0 0 0 0 0 0 0 0.1 0l1.8-3.3"/>
	<path id="Layer" fill-rule="evenodd" class="s44" d="m110.6 78.6l1.4-2.2q0 0 0-0.1 0 0 0 0 0 0 0 0 0 0 0 0c-0.2-0.7-0.7-0.9-1.5-1.1-1.4-0.5-2.8-1-4.4-1q0 0 0 0 0 0 0 0 0 0 0 0 0 0 0 0.1l-0.4 0.4q-0.2 0.1-0.2-0.1-0.1-0.5-0.3-0.9 0 0 0 0 0 0 0 0 0 0-0.1-0.1 0 0 0 0c-0.3 0-0.7 0.1-1 0q-1.4-0.3-2.7-0.7c-0.7-0.1-1.2-0.1-1.9 0.1q-0.2 0-0.1 0.3l0.9 2.7"/>
	<path id="Layer" fill-rule="evenodd" class="s45" d="m110.6 78.6q-1.5-0.4-3.1-0.8c-1.8-0.4-3.6-1-5.6-1.6q-0.8-0.3-1.6-0.2"/>
	<path id="Layer" fill-rule="evenodd" class="s44" d="m117.3 83.8q3.1 0.7 6.2 1.7c0.3 0 0.6 0.1 0.6-0.3q0.2-1.7 0.3-3.7 0 0 0 0 0 0 0 0 0 0 0 0 0 0 0-0.1-1.2-0.9-2.5-1.7-0.5-0.3-0.9-0.4 0 0 0 0 0 0 0 0 0 0 0 0-0.1 0-0.1 0l-0.7-0.5q0 0 0 0-0.4 0-0.8-0.3-0.6-0.4-1.3-0.6-0.3-0.1-0.3 0.2l-0.5 5.6q0 0 0 0 0 0.1 0 0.1 0 0 0 0 0 0 0 0z"/>
	<path id="Layer" fill-rule="evenodd" class="s36" d="m24.5 69.2q-1.6 4.7-3.1 9.4c-0.2 0.4 0.1 0.5 0.4 0.3q2.2-1.3 2.7-1.5 1.7-0.6 3.4-1.4c0.6-0.2 0.8-0.4 0.9-1q0.8-2.7 2.1-6.5"/>
	<path id="Layer" fill-rule="evenodd" class="s35" d="m30.9 68.5c0.4-0.9 0.6-2.5 1.6-3q0.2-0.1 0.7-0.2 4.4-0.7 8.9-1c0.5 0 1.3-0.2 1.9-0.3q2.7-0.2 5.4-0.4c0.2 0 0.4 0 0.5-0.3q0.1-0.2 0.2-0.5 0-0.2-0.2-0.3-1.6-0.3-3.1 0c-0.8 0.2-1.6 0.2-2.2 0.3q-1.5 0.3-2 0.3c-1.7 0-3.2 0.3-5 0.7q-0.9 0.1-1.8 0.1 0 0 0 0 0 0 0 0.1 0 0 0 0-0.1 0-0.1 0-0.3 0.2-0.5 0.2c-1.1 0.2-2.5 0.2-3.4 0.5q-0.9 0.2-1.8 0.5c-0.5 0.3-1.1 0.2-1.7 0.3q-0.8 0.1-2.4 0.5-0.3 0.1-0.5 0.2 0 0 0 0 0 0 0 0 0 0 0 0 0 0 0 0l-0.9 3"/>
	<path id="Layer" fill-rule="evenodd" class="s37" d="m30.9 68.5q-0.8-0.4-1.8-0.2-2.2 0.4-3.1 0.6 0 0-0.2 0.1-0.1 0-0.1 0 0 0.1 0 0.1 0 0 0 0 0 0 0 0-0.6-0.1-1.2 0.1"/>
	<path id="Layer" fill-rule="evenodd" class="s46" d="m35.8 72.7c0.7 0.4 1.7 0.3 2.4 0.1 0.5-0.2 1.1-0.6 1.6-0.7q3.6-0.6 7.1-1.4c0.4-0.1 0.8-0.1 1.2-0.1q0 0 0 0 0 0 0 0 0 0 0 0 0-0.1 0-0.1c0.3-0.3 0.3-0.7 0.4-1q0.2-0.6 0.3-1.1 0.1-0.3-0.2-0.3-6.3 0.6-12.5 1.6 0 0-0.1 0 0 0 0 0 0 0 0 0.1 0 0 0 0c-0.4 0.7-1.1 2.3-0.2 2.9z"/>
	<path id="Layer" fill-rule="evenodd" class="s47" d="m25.7 80.6q0.2 0 0 0.1-0.6 0.5-1.2 0.8c-0.9 0.5-3.1 2.4-2.9 3.7q0 0 0 0 0 0 0 0 0 0 0 0 0 0 0 0c0.5 0.1 0.9 0.1 1.4-0.1 4.6-1.2 9.3-2.3 13.9-3.2q2.4-0.5 3.1-0.6c3.1-0.8 5.7-3 6.6-6.1 0.3-0.9-0.2-1-1-0.8-0.9 0.2-2 0.5-3 0.6-0.8 0-2.3 0.3-2.6 1.2-0.5 1.3-1.3 1.4-2.7 1.6q-4.1 0.6-8.2 1.6c-0.3 0-0.7-0.2-1.1-0.1-0.6 0.1-1.1 0.3-1.6 0.7q-0.4 0.3-0.9 0.6 0 0 0 0 0 0 0 0 0 0.1 0 0.1 0 0 0 0h0.1q0 0 0 0 0 0 0 0 0 0 0 0 0 0 0 0 0.1-0.1 0.1-0.1z"/>
	<path id="Layer" class="s48" d="m101.7 28q-0.1 0.1-0.1 0.3-0.7 8-1.4 15.8-0.1 0.2-0.3 0.2l-7-0.2q-0.3-0.1-0.2-0.3 1.3-7.8 2.4-15.6 0.1 0 0 0 0-0.1 0-0.1 0 0 0 0 0 0 0 0h-3l0.1-0.1h3.5q0 0 0.1 0 0 0 0 0 0 0.1 0 0.1 0 0 0 0-0.5 2.8-0.8 5.4c-0.2 0.9-0.4 2-0.5 2.8q-0.5 3.4-1.1 6.9 0 0 0 0 0 0 0 0 0 0.1 0 0.1 0 0 0.1 0c1 0 2.1 0.1 3.1 0.1q1.4 0.1 2.9 0.1 0 0 0 0 0 0 0 0 0.1 0 0.1 0 0 0 0-0.1 0.8-7.6 1.3-15.3 0 0 0 0 0-0.1 0-0.1 0.1 0 0.1 0 0 0 0 0z"/>
	<path id="Layer" class="s49" d="m142.6 28v0.1h-22.2l-0.1-0.1z"/>
	<path id="Layer" class="s50" d="m20.1 28v0.1q-0.1 0-0.1 0 0 0 0 0 0 0 0 0-0.1 0-0.1 0 0 0.1 0 0.1-6.8 17.5-12.9 35.4-0.1 0.3 0.2 0.2l7.5-0.9 0.1 0.3-8.6 1.3q-0.3 0-0.2-0.3c4-11.5 7.8-22 12.6-34.3 0.1-0.3 0.2-0.7 0.3-1.1 0.1-0.2 0.2-0.5 0.3-0.7q0 0 0-0.1 0 0 0 0 0 0 0 0 0 0 0.1 0z"/>
	<path id="Layer" class="s51" d="m20.1 28h11.2v0.1q0 0 0 0 0 0 0 0 0 0 0 0 0 0 0 0h-11.2z"/>
	<path id="Layer" class="s52" d="m31.3 28h31.7q0 0 0 0.1 0 0 0 0 0 0 0 0 0 0-0.1 0-15.4 0-30.9 0c-0.2 0-0.5-0.1-0.7 0z"/>
	<path id="Layer" fill-rule="evenodd" class="s53" d="m63 28h3.6v0.1q0 0 0 0 0 0 0 0 0.1 0 0.1 0 0 0 0 0h25.4 3q0 0 0 0 0 0 0 0 0 0 0 0.1 0.1 0 0 0-1.1 7.8-2.4 15.6-0.1 0.2 0.2 0.3l7 0.2q0.2 0 0.3-0.2 0.7-7.8 1.4-15.8 0-0.2 0.1-0.3h16.7q0.1 0.6 0 1.4 0 0.2 0.2 0.2 0 0 0 0 0 0 0 0 0 0 0 0 0-0.1 0-0.1l1.8-1.4h22.2c0.1 0.1 0 0.2-0.1 0.3q-6.3 6.2-12.7 12.3-1.5 1.4-2.9 2.7-0.1 0-0.1 0 0 0.1 0 0.1 0 0 0 0 0 0 0 0 5.1 6.6 10 13.3 2.6 3.6 5.2 7.2 0.3 0.4-0.2 0.3-5.4-0.7-10.7-1.5c-0.5 0-0.4 0.3-0.4 0.6q-0.9 14.9-2.5 29.9 0 0.2-0.2 0.2-0.1 0-0.3-0.1-3.7-1-7.4-2.1-0.4 0-0.7-0.2c-7.4-2.1-14.9-3.5-22.5-4.7q0 0 0 0 0 0-0.1 0 0 0 0 0 0 0 0 0l-0.6-1.9q-0.1-0.3-0.2 0l-0.4 1.6q0 0 0 0 0 0 0 0 0 0 0 0 0 0 0 0c-0.2 0.1-0.4 0.1-0.6 0.1q-2.5-0.3-5.1-0.6l-12.7-0.9q-0.3 0-0.3-0.3 1.8-7.5 3.5-15c0.1-0.6-0.1-0.4-0.3-0.2q-2.6 2.5-5.2 5 0 0 0 0 0 0 0 0 0 0 0 0 0 0 0 0l-2.7 10.5q0 0 0 0 0 0 0 0 0 0 0 0 0 0 0 0-6.9 0.1-13.8 0.7-2.7 0.1-5.4 0.3c-0.4 0-0.5 0-0.4-0.4q1.9-6.4 3.7-12.7 0-0.1 0-0.1 0 0 0 0 0 0 0 0 0 0 0 0-0.6-1-1.3-2c-0.1-0.1-0.2-0.2-0.3 0q-1.7 5.4-2.2 7-0.5 1.5-0.9 2.3c-1.6 3.6-5.2 6.2-8.9 7.4q-0.6 0.1-2 0.4-4.8 1-9.7 2.2-1.9 0.4-6.1 1.5c-4.3 1.1-8.5-1.1-9.6-5.5-0.3-1.6-0.1-3 0.4-4.6q2.9-9.1 6-18.1c0.1-0.3 0.3-0.7 0.5-1q0.1-0.3-0.2-0.3l-7.5 1.1-7.5 0.9q-0.3 0.1-0.2-0.2 6.1-17.9 12.9-35.4 0 0 0-0.1 0 0 0.1 0 0 0 0 0 0 0 0 0 0 0 0.1 0h11.2q0 0 0 0 0 0 0 0 0 0 0 0 0 0 0 0c0.2-0.1 0.5 0 0.7 0q15.5 0 30.9 0 0.1 0 0.1 0 0 0 0 0 0 0 0 0 0-0.1 0-0.1zm32.8 49.9q0.1 0 0.1 0 0 0 0 0 0.1 0.1 0.1 0.1 0 0 0 0l2.2 6.7q0 0 0.1 0 0 0 0 0 0 0 0 0 0 0 0 0 5.9 0.9 11.6 2.1 0.1 0 0.1 0 0 0 0 0 0 0 0 0 0 0 0-0.1 1.1-1.6 2.1-3.2 0.2-0.4 0.2 0.1-0.2 1.7-0.4 3.4 0 0.2 0.2 0.3 7.2 1.7 14.3 3.8 0.3 0 0.3-0.2 1.5-14.8 2.4-29.6c0-0.4 0.2-0.3 0.5-0.3q4.2 0.6 8.5 1.2 0.3 0 0.2-0.3 0 0 0 0-6.7-9.2-13.6-18c-0.2-0.2-0.3-0.3 0-0.6q6.6-5.7 13.7-12.9c0.1-0.1 0-0.2-0.2-0.2q-8.5 0-17.1 0 0 0 0 0 0 0-0.1 0 0 0 0 0 0 0 0 0l-4.2 3.5q-0.3 0.3-0.3-0.1l0.2-3.3q0 0 0-0.1-0.1 0-0.1 0 0 0 0 0 0 0 0 0c-0.6-0.1-1.4 0-1.8 0q-5.9 0-11.6 0 0 0 0 0-0.1 0-0.1 0 0 0 0 0 0 0 0 0.1-0.6 8-1.5 16 0 0 0 0 0 0 0 0 0 0 0 0 0 0-0.1 0l-10.6-0.4q-0.3 0-0.3-0.2 1.4-7.6 2.5-15.3 0-0.2-0.2-0.2h-26.2q0 0-0.1 0 0 0 0 0 0 0 0 0 0 0 0 0l-4 15.5q0 0 0 0 0 0 0 0-0.1 0-0.1 0.1 0 0 0 0h-2.6q-0.1 0-0.1-0.1 0 0 0 0 0 0 0 0 0 0 0-0.1 2.2-7.5 4.4-15.1 0.1-0.4-0.3-0.4c-8.4 0.1-16.6 0-24.9 0.1q-0.1 0-0.1 0 0 0 0 0 0 0 0 0 0 0 0 0l-2.9 8.2q0 0 0 0 0 0.1-0.1 0.1 0 0 0 0 0 0 0 0l-3.5 0.1q-0.3 0-0.2-0.3l2.9-7.8q0.1-0.3-0.2-0.3h-13.6q0 0 0 0 0 0 0 0-0.1 0-0.1 0 0 0 0 0-0.2 0.3-0.3 0.6-6 15.3-11.4 30.8 0 0 0 0 0 0 0 0 0 0 0 0 0 0 0 0c0.1 0.3 0.3 0.2 0.5 0.2q7.1-0.9 14.2-1.9 0.1 0 0.1 0 0 0 0 0 0 0 0 0 0 0 0 0l3.2-8.9q0 0 0 0 0 0 0 0 0 0 0.1 0 0 0 0 0l3.7-0.3q0.4 0 0.3 0.4l-2.7 7.6q0 0 0 0 0 0 0 0.1 0 0 0 0 0 0 0 0c-0.6 0.2-1.2 0.5-1.7 0.8q-2.9 1.7-4 5-2.9 8.1-5.5 16.3c-0.4 1.3-0.6 2.1-0.6 3.3 0 3.4 2.9 5.7 6.2 5.5q0.6-0.1 1.9-0.4 7.9-2.1 16-3.6c4.1-0.9 7.9-3.6 9.4-7.6q0.2-0.3 0.7-1.9 1.6-4.8 3-9.7 0.2-0.4 0.4 0l3.6 5.7q0 0 0 0 0 0 0 0 0 0 0 0.1 0 0 0 0l-3.2 11.1q-0.1 0.3 0.3 0.3 6.9-0.6 13.8-0.7 0.9-0.1 1.8-0.1 0 0 0 0 0 0 0.1 0 0 0 0 0 0-0.1 0-0.1 1.2-4.6 2.4-9.3c0.1-0.4 0.6-0.8 1-1.2q4.4-4.2 8.7-8.4 0 0 0.1 0 0 0 0 0 0 0 0 0 0 0 0 0 0.2 0 0.1 0.2-1.9 9.4-4.1 18.6-0.1 0.3 0.2 0.3 7.4 0.4 14.8 1.2 0.1 0 0.1 0 0 0 0 0 0 0 0-0.1 0 0 0.1 0c0.1-0.5 1.3-6.2 1.3-6.2zm-59.2-46.5q0.1-0.1 0.1-0.1 0 0-0.1 0 0-0.1 0-0.1 0 0 0 0h-0.1q0 0 0 0 0 0-0.1 0 0 0 0 0 0 0.1 0 0.1l-1.8 5.1q0 0 0 0.1 0 0 0 0 0 0 0 0 0 0.1 0.1 0.1 0 0 0 0 0 0 0.1 0 0 0 0-0.1 0 0 0 0zm-7.4 21.3q0 0 0-0.1 0 0 0-0.1 0 0-0.1 0 0-0.1 0-0.1h-0.1q0 0-0.1 0 0 0-0.1 0 0 0 0 0.1-0.1 0-0.1 0.1l-1.7 4.7q0 0.1 0 0.1 0 0.1 0 0.1 0.1 0 0.1 0.1 0 0 0.1 0 0 0 0.1 0 0 0 0.1 0 0 0 0.1 0 0-0.1 0-0.1z"/>
	<path id="Layer" class="s51" d="m66.6 28h25.6l-0.1 0.1h-25.4q0 0 0 0 0 0-0.1 0 0 0 0 0 0 0 0 0z"/>
	<path id="Layer" class="s48" d="m118.4 28h1.9l0.1 0.1-1.8 1.4q0 0 0 0.1 0 0 0 0 0 0 0 0 0 0 0 0-0.2 0-0.2-0.2 0.1-0.8 0-1.4z"/>
	<path id="Layer" class="s50" d="m142.6 28h0.7q0.3 0 0.1 0.2-8.9 8.8-11.4 11.2-2.1 2-4.2 3.9-0.1 0.1 0 0.3c3.2 4.2 6.4 8.4 9.4 12.7q-0.1 0.3-0.4 0.5-4.9-6.7-10-13.3 0 0 0 0 0 0 0 0 0 0 0-0.1 0 0 0.1 0 1.4-1.3 2.9-2.7 6.4-6.1 12.7-12.3c0.1-0.1 0.2-0.2 0.1-0.3z"/>
	<path id="Layer" fill-rule="evenodd" class="s54" d="m95.8 77.9c0 0-1.2 5.7-1.3 6.2q-0.1 0-0.1 0 0 0 0 0 0 0.1 0 0.1 0 0-0.1 0-7.4-0.9-14.8-1.2-0.3 0-0.2-0.3 2.2-9.3 4.1-18.6 0.1-0.2-0.1-0.2 0 0 0 0 0 0 0 0 0 0 0 0-0.1 0-0.1 0-4.3 4.2-8.7 8.4c-0.4 0.4-0.9 0.7-1 1.2q-1.2 4.6-2.4 9.3 0 0 0 0 0 0 0 0-0.1 0.1-0.1 0.1 0 0 0 0-0.9 0-1.8 0-6.9 0.2-13.8 0.8-0.4 0-0.3-0.4l3.2-11.1q0 0 0 0 0 0 0 0 0 0 0 0 0 0 0 0l-3.6-5.7q-0.2-0.4-0.4 0-1.4 4.8-3 9.7-0.5 1.6-0.7 1.9c-1.5 4-5.3 6.7-9.4 7.5q-8.1 1.6-16 3.6-1.3 0.4-1.9 0.4c-3.3 0.2-6.2-2-6.2-5.5 0-1.1 0.2-2 0.6-3.2q2.6-8.2 5.5-16.3 1.1-3.3 4-5.1c0.5-0.3 1.1-0.5 1.7-0.7q0-0.1 0-0.1 0 0 0 0 0 0 0 0 0 0 0 0l2.7-7.7q0.1-0.3-0.3-0.3l-3.7 0.2q0 0 0 0.1-0.1 0-0.1 0 0 0 0 0 0 0 0 0l-3.2 8.8q0 0 0 0.1 0 0 0 0 0 0 0 0 0 0-0.1 0-7.1 0.9-14.2 1.8c-0.2 0.1-0.4 0.2-0.5-0.1q0 0 0 0 0 0 0 0 0-0.1 0-0.1 0 0 0 0 5.4-15.5 11.4-30.7 0.1-0.4 0.3-0.6 0 0 0 0 0-0.1 0.1-0.1 0 0 0 0 0 0 0 0h13.6q0.3 0 0.2 0.3l-2.9 7.8q-0.1 0.4 0.2 0.4l3.5-0.1q0 0 0-0.1 0 0 0 0 0.1 0 0.1 0 0 0 0 0l2.9-8.2q0 0 0 0 0 0 0 0 0 0 0-0.1 0 0 0.1 0c8.3 0 16.5 0.1 24.9 0q0.4 0 0.3 0.4-2.2 7.5-4.4 15.1 0 0 0 0 0 0.1 0 0.1 0 0 0 0 0 0 0.1 0h2.6q0 0 0 0 0 0 0.1 0 0 0 0 0 0 0 0 0l4-15.5q0 0 0 0 0 0 0 0 0-0.1 0-0.1 0.1 0 0.1 0h26.2q0.2 0 0.2 0.3-1.1 7.6-2.5 15.2 0 0.3 0.3 0.3l10.6 0.4q0.1 0 0.1 0 0 0 0 0 0 0 0 0 0-0.1 0-0.1 0.9-8 1.5-16 0 0 0 0 0 0 0 0 0 0 0.1-0.1 0 0 0 0 5.7 0 11.6 0c0.4 0 1.2 0 1.8 0q0 0.1 0 0.1 0 0 0 0 0 0 0.1 0 0 0 0 0.1l-0.2 3.3q0 0.4 0.3 0.1l4.2-3.5q0 0 0-0.1 0 0 0 0 0.1 0 0.1 0 0 0 0 0 8.6 0 17.1 0c0.2 0 0.3 0.1 0.2 0.2q-7.1 7.2-13.7 13c-0.3 0.3-0.2 0.3 0 0.6q6.9 8.7 13.6 18 0 0 0 0 0.1 0.3-0.2 0.2-4.3-0.6-8.5-1.1c-0.3-0.1-0.5-0.1-0.5 0.3q-0.9 14.8-2.4 29.5 0 0.3-0.3 0.2-7.1-2.1-14.3-3.8-0.2 0-0.2-0.2 0.2-1.7 0.4-3.4 0-0.6-0.2-0.2-1 1.6-2.1 3.3 0 0 0 0 0 0 0 0.1 0 0 0 0 0 0-0.1 0-5.7-1.2-11.6-2.1 0 0 0 0 0 0 0 0 0 0 0 0-0.1-0.1-0.1-0.1l-2.2-6.6q0 0 0 0 0-0.1-0.1-0.1 0 0 0 0 0 0-0.1 0zm-84.1-18.4q0 0 0 0 0 0 0 0 0 0 0 0 0 0 0.1 0l11.4-1.5q0 0 0 0 0 0 0.1 0 0 0 0 0 0 0 0 0l3.2-9q0 0 0-0.1 0 0 0 0 0.1 0 0.1 0 0 0 0 0l6.7-0.4q0.4 0 0.3 0.3l-2.9 8.2q-0.1 0.2 0.2 0.2l11.5-1q0.1 0 0.1 0 0 0 0 0 0 0 0 0 0 0 0 0l8.4-25.4q0-0.1 0-0.1 0 0 0 0 0 0 0-0.1-0.1 0-0.1 0h-10.9q0 0 0 0 0 0-0.1 0.1 0 0 0 0 0 0 0 0l-2.8 8.2q0 0 0 0-0.1 0.1-0.1 0.1 0 0 0 0 0 0 0 0l-6.5 0.2q-0.3 0-0.2-0.3l2.9-8q0.1-0.3-0.1-0.3h-10.9q0 0 0 0 0 0 0 0.1 0 0 0 0 0 0 0 0-5.5 14.2-10.5 28.5-0.1 0.2 0.1 0.3zm46.3-13.1q-0.1-0.1-0.1-0.3 2.3-7.6 4.5-15.3 0-0.1 0-0.1 0 0-0.1 0 0 0 0-0.1 0 0 0 0h-10.8q-0.1 0-0.1 0 0 0 0 0.1 0 0 0 0 0 0 0 0-0.2 0.4-0.3 0.8-2.5 7.9-5 15.9-0.4 1.2-0.5 1.4c-0.6 2.5 0 4.7 2.2 6.1 1.2 0.8 2.5 0.9 3.9 0.8q6.6-0.3 15-0.5 1.4 0 2-0.1c2.2-0.3 4.1-1.4 4.9-3.4q0.2-0.5 0.6-2 2.3-9.4 4.3-18.9 0-0.1 0-0.1 0 0 0 0 0 0 0-0.1-0.1 0-0.1 0h-10.7q0 0 0 0 0 0 0 0.1-0.1 0-0.1 0 0 0 0 0l-4 15.6q0 0 0 0 0 0 0 0 0 0 0 0 0 0-0.1 0l-5.4 0.1q0 0 0 0 0 0-0.1 0 0 0 0 0 0 0 0 0zm57-10.5q-0.1-0.5 0-1c0.1-1.3 0.2-2.7 0.2-4q0-0.3-0.2-0.3h-10.5q-0.1 0-0.1 0 0 0 0 0.1 0 0 0 0 0 0 0 0-0.7 8.1-1.6 16.2 0 0 0 0.1 0 0 0 0 0 0 0 0 0 0-0.1 0c-4.4-0.1-8.9-0.4-13.4-0.5-0.4 0-0.3-0.2-0.3-0.5q1.3-7.5 2.5-15.1 0.1-0.3-0.2-0.3h-11.3q0 0 0 0 0 0-0.1 0.1 0 0 0 0 0 0 0 0-2.3 12.2-5.1 24.3 0 0.2 0.2 0.2 19 0.1 38 1.9 0.2 0 0.3-0.2 0.3-3.6 0.7-7.3c0-0.6 0.4-0.7 0.7-0.3q3.4 4.3 6.7 8.6 0 0 0 0 0 0 0 0 0 0 0 0 0 0 0 0l13.7 1.8q0.4 0.1 0.1-0.3-6.1-8.6-12.6-16.8-0.1 0-0.1 0 0 0 0-0.1 0 0 0 0 0.1 0 0.1 0 6.3-5.5 12.2-11.5c0.4-0.4 0-0.4-0.3-0.4q-6.5 0-12.9 0-0.1 0-0.1 0 0 0 0 0 0 0 0 0 0 0.1 0 0.1l-6.3 5.3q-0.2 0.1-0.2-0.1zm4.9 23.2q0 0 0-0.1 0.1 0 0.1 0 0 0 0 0 0-0.1 0-0.1l-4.7-6q-0.1 0-0.1 0 0 0 0 0-0.1 0-0.1 0 0 0 0 0.1l-0.5 5.2q0 0 0 0.1 0 0 0 0 0 0 0 0 0 0 0 0zm-75.7-2q0.1 0 0.1 0l2.5-0.2q0.3-0.1 0.1-0.2-1.1-0.8-1.9-1.9-0.2-0.3-0.3 0-0.3 1-0.6 2-0.1 0.2 0.1 0.3zm23.3 3.8q0.1 0.2 0.4 0 2.1-2.2 4.2-4.4 0.4-0.4 0.8-0.6 0 0 0 0 0 0 0 0 0 0 0 0 0 0 0 0 0.7 0.1 0.7-0.6 0-0.2-0.2-0.1c-2.3 2-4.7 2.2-7.6 2.2q-0.3 0-0.2 0.2zm-14.8 4.7q0 0-0.1 0 0-0.1 0-0.1 0 0 0 0 0-0.1 0-0.1 0.5-1.6 0.9-3.2c0.1-0.3 0.2-0.7 0.5-0.2q2.9 4.8 5.8 9.6 0 0 0 0 0 0 0 0 0 0 0 0 0 0.1 0 0.1l-2.8 10q-0.1 0.2 0.2 0.2 6.4-0.5 12.8-0.7 0 0 0 0 0 0 0 0 0 0 0.1 0 0 0 0 0l2.3-9.1q0 0 0 0 0 0 0 0 0-0.1 0-0.1 0 0 0 0 6.6-6.3 13-12.7 0.5-0.5 0.3 0.1-2.1 10.9-4.7 21.7 0 0.3 0.2 0.3 6.1 0.3 12.1 1 0 0 0.1 0 0 0 0 0 0 0 0 0 0-0.1 0-0.1 1.1-4.9 2.1-9.8c0-0.1 0.1-0.4 0.2 0q1.9 5.3 3.6 10.6 0 0.1 0.1 0.1 0 0 0 0 0 0 0 0 0 0 0 0 5 0.8 10 1.8 0 0 0 0 0 0 0 0 0 0 0 0 0.1-0.1 0.1-0.1 2.3-4 4.7-7.9c0-0.1 0.1-0.1 0.1-0.1q0 0 0.1 0 0 0 0 0.1 0 0 0 0 0 0 0 0l-0.9 8.8q0 0 0 0 0 0.1 0 0.1 0 0 0 0 0 0 0.1 0 5.9 1.4 11.7 3.1 0.2 0.1 0.3-0.1 1.4-13.8 2.1-27.6 0-0.2-0.2-0.2-8.6-1.4-17.2-2.4 0 0 0 0 0 0 0 0 0 0 0 0-0.1 0.1-0.1 0.1l-4.2 8.9q-0.1 0.3-0.3 0 0-0.1-0.1-0.3-1.3-4.7-2.7-9.3 0-0.1 0-0.1 0 0 0 0 0 0 0 0 0 0 0 0-14.8-1.4-29.6-1.3 0 0 0 0 0 0 0 0-0.1 0-0.1 0 0 0 0 0l-5.6 5.9q-0.2 0.2-0.4 0l-3.3-5.8q0 0 0 0 0 0 0 0 0 0-0.1 0 0 0 0 0-15.7 0.4-31.3 2.2c-2.1 0.3-4.2 0.6-5.8 2.2-1.1 1-1.8 2.4-2.3 3.8-2 5.7-4 11.3-5.6 17.1-0.9 2.7 0.6 5.7 3.7 6q0.8 0 1.4-0.1 7.5-2 11.1-2.7 5-1.1 6.4-1.4c3.4-0.8 6.6-3.1 7.9-6.4q0.3-0.8 0.4-1.2 2.3-7 3.4-10.6c0.1-0.4-0.3-0.1-0.4-0.1zm56.2-6.7q0.1 0 0 0 0 0 0 0 0-0.1 0-0.1 0 0 0 0l-4.4-0.3q-0.1 0-0.1 0 0 0 0 0 0 0 0 0 0 0 0 0.1l1.7 6q0 0.1 0 0.1 0 0 0.1 0 0 0 0 0 0 0 0-0.1z"/>
	<path id="Layer" fill-rule="evenodd" class="s53" d="m11.7 59.5q-0.2-0.1-0.1-0.3 5-14.3 10.5-28.5 0 0 0 0 0 0 0 0 0-0.1 0-0.1 0 0 0 0h10.9q0.2 0 0.1 0.3l-2.9 8q-0.1 0.3 0.2 0.3l6.5-0.2q0 0 0 0 0 0 0 0 0 0 0.1-0.1 0 0 0 0l2.8-8.2q0 0 0 0 0 0 0 0 0.1-0.1 0.1-0.1 0 0 0 0h10.9q0 0 0.1 0 0 0.1 0 0.1 0 0 0 0 0 0 0 0.1l-8.4 25.4q0 0 0 0 0 0 0 0 0 0 0 0 0 0-0.1 0l-11.5 1q-0.3 0-0.2-0.2l2.9-8.2q0.1-0.3-0.3-0.3l-6.7 0.4q0 0 0 0 0 0-0.1 0 0 0 0 0 0 0.1 0 0.1l-3.2 9q0 0 0 0 0 0 0 0-0.1 0-0.1 0 0 0 0 0l-11.4 1.5q-0.1 0-0.1 0 0 0 0 0 0 0 0 0 0 0 0 0zm23.9-14q0.3 0 0.2 0.3l-2.8 8.2q-0.1 0.3 0.2 0.3l7-0.6q0 0 0 0 0 0 0.1 0 0 0 0 0 0 0 0-0.1 3.6-10.7 7.1-21.6 0.1-0.2 0-0.2-0.2-0.1-0.4-0.1c-2.1 0-4.2 0.1-6.2 0q-0.1 0-0.1 0 0 0 0 0 0 0 0 0 0 0.1 0 0.1l-2.9 8.3q-0.1 0-0.1 0 0 0 0 0.1 0 0 0 0 0 0 0 0-5.5 0.2-11.1 0.4c-0.4 0-0.5 0-0.4-0.4q1.5-4.1 3-8.2 0.1-0.3-0.2-0.3h-6.4q0 0-0.1 0 0 0 0 0.1 0 0 0 0 0 0 0 0-4.7 12.2-9.1 24.4 0 0.1 0 0.1 0 0 0 0 0 0 0 0 0 0 0 0 0.1 0.2 0.3 0.2 3.4-0.5 6.9-0.9 0 0 0 0 0 0 0.1 0 0 0 0 0 0 0 0-0.1l3.3-9.2q0-0.1 0-0.1 0 0 0 0 0.1 0 0.1 0 0 0 0 0 5.6-0.3 11.2-0.7 0.2 0 0.3 0z"/>
	<path id="Layer" fill-rule="evenodd" class="s53" d="m58 46.4q0 0 0 0 0 0 0 0 0.1 0 0.1 0 0 0 0 0l5.4-0.1q0.1 0 0.1 0 0 0 0 0 0 0 0 0 0 0 0 0l4-15.6q0 0 0 0 0 0 0.1 0 0-0.1 0-0.1 0 0 0 0h10.7q0 0 0.1 0 0 0.1 0 0.1 0 0 0 0 0 0 0 0.1-2 9.5-4.3 18.9-0.4 1.5-0.6 2c-0.8 2-2.7 3.1-4.9 3.4q-0.6 0.1-2 0.1-8.4 0.2-15 0.5c-1.4 0.1-2.7 0-3.9-0.8-2.2-1.4-2.8-3.6-2.2-6.1q0.1-0.2 0.5-1.4 2.5-8 5-15.9 0.1-0.4 0.3-0.8 0 0 0 0 0 0 0 0 0-0.1 0-0.1 0 0 0.1 0h10.8q0 0 0 0 0 0.1 0 0.1 0.1 0 0.1 0 0 0 0 0.1-2.2 7.7-4.5 15.3 0 0.2 0.1 0.3zm-11.1 3.4c0 1.9 1.5 3.4 3.3 3.3q9.8-0.4 17-0.5 1.2-0.1 1.7-0.2c1.4-0.3 2.6-1.3 3-2.7q2.1-8.8 4-17.6 0.1-0.4-0.2-0.4-3 0-6 0-0.2 0-0.5 0.1 0 0 0 0 0 0 0 0.1 0 0 0 0 0 0 0 0-0.2 0.5-0.5 1.7-1.7 6.8-3.5 13.5c-0.1 0.5-0.4 0.6-0.9 0.6q-2.6 0.1-8.7 0.2c-0.8 0-0.8-0.6-0.6-1.2q2.2-7.3 4.2-14.7 0.1-0.2-0.2-0.2c-2.1-0.1-3.9 0-6.3-0.1-0.3 0-0.3 0.2-0.3 0.5q-2.5 7.9-5 15.7-0.4 1.4-0.5 1.9z"/>
	<path id="Layer" fill-rule="evenodd" class="s53" d="m115 35.9q0 0.2 0.2 0.1l6.3-5.3q0 0 0-0.1 0 0 0 0 0 0 0 0 0 0 0.1 0 6.4 0 12.9 0c0.3 0 0.7 0 0.3 0.4q-5.9 6-12.2 11.5 0 0-0.1 0 0 0 0 0 0 0.1 0 0.1 0 0 0.1 0 6.5 8.2 12.6 16.8 0.3 0.4-0.1 0.3l-13.7-1.8q0 0 0 0 0 0 0 0 0 0 0 0 0 0 0 0-3.3-4.3-6.7-8.6c-0.3-0.4-0.7-0.3-0.7 0.3q-0.4 3.7-0.7 7.3-0.1 0.2-0.3 0.2-19-1.8-38-1.9-0.2 0-0.2-0.2 2.8-12.1 5.1-24.3 0 0 0 0 0 0 0 0 0.1-0.1 0.1-0.1 0 0 0 0h11.3q0.3 0 0.2 0.3-1.2 7.6-2.5 15.1c0 0.3-0.1 0.5 0.3 0.5 4.5 0.1 9 0.4 13.4 0.5q0.1 0 0.1 0 0 0 0 0 0 0 0 0 0-0.1 0-0.1 0.9-8.1 1.6-16.2 0 0 0 0 0 0 0 0 0-0.1 0-0.1 0 0 0.1 0h10.5q0.2 0 0.2 0.3c0 1.3-0.1 2.7-0.2 4q-0.1 0.5 0 1zm-2.3 12.2q-0.1-0.6 0.4-0.9l2.5-1.9q0 0 0 0 0 0 0 0 0.1 0 0.1 0 0 0 0 0.1l7.8 10q0 0 0 0 0.1 0 0.1 0.1 0 0 0 0 0 0 0 0l8.1 1q0.4 0 0.2-0.3-5.5-7.4-11.2-14.6-0.2-0.2 0-0.3 5.4-4.5 10.4-9.4 0.1-0.1-0.1-0.2c-0.3 0-0.8 0-1.1 0q-3.3 0-6.6 0 0 0 0 0 0 0 0 0 0 0 0 0 0 0 0 0-4.7 4.1-9.7 7.8-0.3 0.3-0.2-0.1 0.2-3.8 0.4-7.6 0 0 0 0 0 0 0 0 0 0 0 0 0-0.1-0.1-0.1c-0.4 0-1 0-1.4 0q-2.1 0-4.3 0c-0.2 0-0.6 0-0.9 0.1q-0.1 0-0.1 0 0 0 0 0 0 0 0 0 0 0 0 0-0.9 10.9-2.2 21.6-0.1 0.3 0.2 0.3 3.5 0.3 6.9 0.5c0.3 0.1 0.2-0.1 0.3-0.3q0.2-2.9 0.5-5.8zm-35.2 4.4c0.3 0.1 0.5 0.1 0.7 0.1q11.3 0.1 22.6 0.8 0.2 0 0.2-0.2l0.6-4.6q0.1-0.2-0.2-0.2l-14.5-0.6q-0.2 0-0.1-0.2l2.6-15.5q0-0.4-0.3-0.4c-1.2 0-2.5 0.1-3.6 0.1q-1.7 0-3.5-0.1-0.2 0-0.2 0.2-2 10.3-4.3 20.5 0 0 0 0 0 0 0 0.1 0 0 0 0 0 0 0 0z"/>
	<path id="Layer" class="s55" d="m36.4 31.2c0 0 0.1-0.1 0.1 0h0.1c0 0 0.1 0.1 0 0.1l-1.8 5.2c0 0-0.1 0.1-0.1 0-0.1 0-0.1-0.1-0.1-0.1z"/>
	<path id="Layer" fill-rule="evenodd" class="s56" d="m35.6 45.5q-0.1 0-0.3 0-5.6 0.4-11.2 0.7 0 0 0 0 0 0-0.1 0 0 0 0 0 0 0 0 0.1l-3.3 9.2q0 0.1 0 0.1 0 0 0 0-0.1 0-0.1 0 0 0 0 0-3.5 0.4-6.9 0.9-0.2 0-0.3-0.2 0 0 0 0 0 0 0 0 0 0 0 0 0 0 0-0.1 4.4-12.2 9.1-24.4 0 0 0 0 0 0 0 0 0-0.1 0-0.1 0.1 0 0.1 0h6.4q0.3 0 0.2 0.3-1.5 4.1-3 8.2c-0.1 0.4 0 0.4 0.4 0.4q5.6-0.2 11.1-0.4 0 0 0 0 0 0 0 0 0-0.1 0-0.1 0 0 0.1 0l2.9-8.3q0 0 0-0.1 0 0 0 0 0 0 0 0 0 0 0.1 0c2 0.1 4.1 0 6.2 0q0.2 0 0.4 0.1 0.1 0 0 0.2-3.5 10.9-7.1 21.6 0 0.1 0 0.1 0 0 0 0-0.1 0-0.1 0 0 0 0 0l-7 0.6q-0.3 0-0.2-0.3l2.8-8.2q0.1-0.3-0.2-0.3zm-16.2-3.8l-1.7 4.4-1.4 3.7q-0.1 0.2 0.2 0.3 1 0.2 2 0c1.2-0.2 2.4-0.5 3.6-0.5q0 0 0.1 0 0 0 0 0 0 0 0 0 0 0 0-0.1l1.3-3.4 0.1-0.4q0 0 0 0 0 0 0.1-0.1 0 0 0 0 0 0 0 0 5.9-0.5 11.8-0.6 0.2-0.1 1.1-0.2-0.2 1.3-0.7 2.6c-0.2 0.4-0.4 0.9 0.3 1q0.8 0 1.8-0.2c0.3 0 0.6 0.1 0.9 0q1.3-0.2 2.6-0.5 0 0 0 0 0 0 0 0 0 0 0 0 0 0 0 0l1.4-3.7 1.2-3.8 2.5-7.5q0.1-0.3-0.3-0.3l-5.1-0.1q0 0 0 0 0 0 0 0 0 0.1-0.1 0.1 0 0 0 0-0.1 0.2-0.2 0.6-1.3 3.6-2.6 7.3l-0.1 0.4q0 0 0 0.1 0 0 0 0-0.1 0-0.1 0 0 0 0 0-6.3 0.2-12.6 0.3-0.2 0-0.2 0l3.1-8.5q0.1-0.3-0.2-0.3l-5.2 0.1q0 0 0 0-0.1 0-0.1 0 0 0 0 0 0 0 0 0z"/>
	<path id="Layer" class="s56" d="m113.1 47.2q-0.3 0 0-0.5 0 0 0-0.1 0.4-0.5 1.1-0.9l1.5-1.2q0 0 0.1 0 0 0 0 0 0 0 0 0 0.1 0.1 0.1 0.1l1.4 1.9 2 2.4q0 0 0 0 0 0 0 0 0.1 0 0.1 0 0 0 0 0 2.7 0.4 5.4 0.9c0.3 0 1.6 0.1 1.1-0.6q-1.7-2.1-2.1-2.7l-4-5q-0.1-0.2 0.1-0.4l0.8-0.6q4.6-3.8 8.8-7.9 0.3-0.3-0.1-0.3h-5.9q0 0 0 0 0 0 0 0 0 0 0 0.1 0 0 0 0-4.1 3.5-8.4 6.8l-2.2 1.7q-0.2 0.2-0.2-0.2l0.1-3.1c0.3-1.6 0.2-3.4 0.4-5q0-0.2-0.2-0.2l-5.4-0.1q0 0 0 0 0 0-0.1 0.1 0 0 0 0 0 0 0 0l-0.4 5.2-0.7 7q-0.1 1.2-0.4 2.4-0.1 0.3 0.1 0.6c0.5 0.5 1.2 0.8 2 0.7 1-0.1 2.1 0.4 3.1 0.2q0.7-0.1 1.5-0.4-0.3 2.9-0.5 5.8c-0.1 0.2 0 0.4-0.3 0.3q-3.4-0.2-6.9-0.5-0.3 0-0.2-0.3 1.3-10.7 2.2-21.6 0 0 0 0 0 0 0 0 0 0 0 0 0 0 0.1 0c0.3-0.1 0.7-0.1 0.9-0.1q2.2 0 4.3 0c0.4 0 1 0 1.4 0q0.1 0 0.1 0.1 0 0 0 0 0 0 0 0 0 0 0 0-0.2 3.8-0.4 7.6-0.1 0.4 0.2 0.1 5-3.7 9.7-7.8 0 0 0 0 0 0 0 0 0 0 0 0 0 0 0 0 3.3 0 6.6 0c0.3 0 0.8 0 1.1 0q0.2 0.1 0.1 0.2-5 4.9-10.4 9.4-0.2 0.1 0 0.3 5.7 7.2 11.2 14.6 0.2 0.3-0.2 0.3l-8.1-1q0 0 0 0 0 0 0 0 0-0.1-0.1-0.1 0 0 0 0l-7.8-10q0-0.1 0-0.1 0 0-0.1 0 0 0 0 0 0 0 0 0z"/>
	<path id="Layer" fill-rule="evenodd" class="s56" d="m50.2 53.1c-1.8 0.1-3.3-1.4-3.3-3.3q0.1-0.5 0.5-1.9 2.5-7.8 5-15.7c0-0.3 0-0.5 0.3-0.5 2.4 0.1 4.2 0 6.3 0.1q0.3 0 0.2 0.2-2 7.4-4.2 14.7c-0.2 0.6-0.2 1.2 0.6 1.2q6.1-0.1 8.7-0.2c0.5 0 0.8-0.1 0.9-0.6q1.8-6.7 3.5-13.5 0.3-1.2 0.5-1.7 0 0 0 0 0 0 0 0 0-0.1 0-0.1 0 0 0 0 0.3-0.1 0.5-0.1 3 0 6 0 0.3 0 0.2 0.4-1.9 8.8-4 17.6c-0.4 1.4-1.6 2.4-3 2.7q-0.5 0.1-1.7 0.2-7.2 0.1-17 0.5zm1.2-15.9l-1.6 5.3-1 2.9q0 0.2 0.2 0.3c1.8 0.4 3.4 0.1 5.6-0.1q0 0 0 0 0.1 0 0.1 0 0 0 0 0 0-0.1 0-0.1 0.1-0.1 0.2-0.4 0.4-1.5 0.8-2.9l1.4-5 1.4-4.7q0-0.1 0-0.1 0 0 0 0-0.1 0-0.1-0.1 0 0 0 0h-5.4q0 0 0 0-0.1 0-0.1 0.1 0 0 0 0 0 0 0 0zm17.7-2.7l-1.5 5.6c-0.5 2-0.9 4.1-1.7 5.9q-0.1 0.3 0.1 0.4c0.3 0.2 0.6 0.3 1 0.3q1.7 0 3.5 0.1 1.4 0.1 1.7-1.2 0.5-1.7 1.2-5.1l1.2-5.6 0.6-2.4q0 0 0 0-0.1 0-0.1 0 0-0.1 0-0.1 0 0 0 0h-5.4q0 0 0 0-0.1 0-0.1 0 0 0 0 0 0 0 0 0.1z"/>
	<path id="Layer" fill-rule="evenodd" class="s56" d="m77.5 52.5q0 0 0 0 0 0 0 0 0-0.1 0-0.1 0 0 0 0 2.3-10.2 4.3-20.5 0-0.2 0.2-0.2 1.8 0.1 3.5 0.1c1.1 0 2.4-0.1 3.6-0.1q0.3 0 0.3 0.4l-2.6 15.5q-0.1 0.2 0.1 0.2l14.5 0.6q0.3 0 0.2 0.2l-0.6 4.6q0 0.2-0.2 0.2-11.3-0.7-22.6-0.8c-0.2 0-0.4 0-0.7-0.1zm3.8-14.6l-1.4 6.7q-0.1 0.3 0.2 0.3 0.5 0 1.1-0.1c0.4 0 0.9 0.2 1.4 0.2q1.4 0 2.9-0.1c0.3 0 0.5 0 0.8 0.1q0.3 0 0.3-0.3l1.2-6.8 0.9-5.3q0-0.2-0.2-0.2c-2-0.1-4.1 0-6.1-0.1q0 0 0 0 0 0 0 0.1-0.1 0-0.1 0 0 0 0 0z"/>
	<path id="Layer" class="s57" d="m25.3 41.1q-2.8 0.4-5.7 0.8-0.2 0-0.2-0.2l3.5-9.3q0 0 0 0 0 0 0 0 0 0 0.1 0 0 0 0 0l5.2-0.1q0.3 0 0.2 0.3z"/>
	<path id="Layer" class="s58" d="m44.1 40.2c-1.2-0.2-2.3-0.1-3.6 0.1-0.3 0.1-1.7 0.4-2 0.3q-0.1-0.1-0.2-0.3 1.3-3.7 2.6-7.3 0.1-0.4 0.2-0.6 0 0 0 0 0.1 0 0.1-0.1 0 0 0 0 0 0 0 0l5.1 0.1q0.4 0 0.3 0.3z"/>
	<path id="Layer" class="s57" d="m57.1 37.2q-0.7-0.2-1.2-0.1-1 0.2-2 0.2-1.2 0-2.5-0.1l1.5-4.8q0 0 0 0 0 0 0 0 0-0.1 0.1-0.1 0 0 0 0h5.4q0 0 0 0 0 0.1 0.1 0.1 0 0 0 0 0 0 0 0.1z"/>
	<path id="Layer" class="s58" d="m87.8 37.9q-3 0.1-6 0 0 0 0 0 0 0 0 0 0 0 0 0 0 0 0 0.1l-0.2 0.1q0 0 0 0.1 0 0 0 0 0 0 0 0-0.1 0-0.1 0-0.2 0-0.2-0.3l1-5.5q0 0 0 0 0 0 0.1 0 0-0.1 0-0.1 0 0 0 0c2 0.1 4.1 0 6.1 0.1q0.2 0 0.2 0.2z"/>
	<path id="Layer" class="s57" d="m112.8 37.6c-1.3 0-2.7-0.1-4-0.2q-1 0-1.7 0.2l0.4-5.2q0 0 0 0 0 0 0 0 0.1-0.1 0.1-0.1 0 0 0 0l5.4 0.1q0.2 0 0.2 0.2c-0.2 1.6-0.1 3.4-0.4 5z"/>
	<path id="Layer" class="s57" d="m120.7 40.5c-0.1-0.5-0.5-0.5-0.8-0.6q-2.1-0.4-4.3-0.4-0.3 0-0.5-0.3 4.3-3.3 8.4-6.8 0 0 0 0 0-0.1 0-0.1 0 0 0 0 0 0 0 0h5.9q0.4 0 0.1 0.3-4.2 4.1-8.8 7.9z"/>
	<path id="Layer" class="s57" d="m74.7 34.9q-2.7-0.3-5.4-0.2-0.1 0-0.1 0 0 0 0 0 0 0 0 0 0-0.1 0-0.1-0.1-0.1-0.1-0.2l0.5-2q0 0 0 0 0.1 0 0.1 0 0 0 0 0 0 0 0 0h5.4q0 0 0 0 0.1 0 0.1 0 0 0 0 0.1 0 0 0 0z"/>
	<path id="Layer" class="s59" d="m69.1 34.4q0 0.1 0.1 0.2 0 0 0 0.1 0 0 0 0 0 0 0 0 0 0 0.1 0 2.7-0.1 5.4 0.2l-1.3 5.5c-0.9-0.2-1.9 0-2.9 0q-0.8 0-1.7 0 0 0 0 0 0 0 0 0-0.1 0-0.1 0 0 0 0 0-0.3-0.3-0.7-0.2c-0.2 0-0.2 0-0.3-0.2z"/>
	<path id="Layer" class="s60" d="m57.1 37.2l-1.4 5q-0.9 0-2.2 0.2-1.7 0.3-3.7 0.1l1.6-5.3q1.3 0.1 2.5 0.1 1 0 2-0.2 0.5-0.1 1.2 0.1z"/>
	<path id="Layer" class="s61" d="m112.8 37.6l-0.1 3.1q0 0.4 0.2 0.2l2.2-1.7q0.2 0.3 0.5 0.3 2.2 0 4.3 0.4c0.3 0.1 0.7 0.1 0.8 0.6l-0.8 0.6q-0.2 0.2-0.1 0.4l4 5c-1.1 0.4-2.2 0.2-3.3 0.1q-0.7 0-1.9-0.2-0.6-0.1-1.3 0.1l-1.4-1.9q0 0-0.1-0.1 0 0 0 0 0 0 0 0-0.1 0-0.1 0l-1.5 1.2q-1.2-0.5-2.5-0.4c-0.3 0-0.8-0.2-1.2-0.3-1 0-2-0.2-3-0.3q-0.5 0-1.1-0.1l0.7-7q0.7-0.2 1.7-0.2c1.3 0.1 2.7 0.2 4 0.2z"/>
	<path id="Layer" class="s62" d="m87.8 37.9l-1.2 6.8q0 0.3-0.3 0.3c-0.3-0.1-0.5-0.1-0.8-0.1q-1.5 0.1-2.9 0.1c-0.5 0-1-0.2-1.4-0.2q-0.6 0.1-1.1 0.1-0.3 0-0.2-0.3l1.4-6.7q0 0.3 0.2 0.3 0 0 0.1 0 0 0 0 0 0 0 0 0 0-0.1 0-0.1l0.2-0.1q0-0.1 0-0.1 0 0 0 0 0 0 0 0 0 0 0 0 3 0.1 6 0z"/>
	<path id="Layer" class="s63" d="m67.7 40c0.1 0.2 0.1 0.2 0.3 0.2q0.4-0.1 0.7 0.2 0 0 0 0 0 0 0.1 0 0 0 0 0 0 0 0 0 0.9 0 1.7 0c1 0 2-0.2 2.9 0q-0.7 3.4-1.1 5.2-0.4 1.3-1.8 1.2-1.7-0.1-3.5-0.1c-0.3 0-0.6-0.1-0.9-0.3q-0.2-0.1-0.1-0.4c0.7-1.9 1.1-4 1.7-6z"/>
	<path id="Layer" class="s61" d="m44.1 40.2l-1.2 3.8q-1.8 0.1-3.6 0.2c-0.5 0.1-1.2 0-1.8 0.1q-0.5 0.1-0.9 0.5-0.9 0.1-1.1 0.2-5.9 0.1-11.8 0.6 0 0 0 0 0 0 0 0-0.1 0.1-0.1 0.1 0 0 0 0l-0.1 0.4q-1.8 0-3.7 0.4-1.1 0.2-2.1-0.4l1.7-4.4q0 0.2 0.2 0.2 2.9-0.4 5.7-0.8 0 0 0.2 0 6.3-0.1 12.6-0.3 0 0 0 0 0 0 0.1 0 0 0 0 0 0-0.1 0-0.1l0.1-0.4q0.1 0.2 0.2 0.3c0.3 0.1 1.7-0.2 2-0.3 1.3-0.2 2.4-0.3 3.6-0.1z"/>
	<path id="Layer" class="s63" d="m55.7 42.2q-0.4 1.4-0.8 2.9-0.1 0.3-0.2 0.4 0 0 0 0.1 0 0 0 0 0 0-0.1 0 0 0 0 0c-2.2 0.2-3.8 0.5-5.6 0.1q-0.2-0.1-0.2-0.3l1-2.9q2 0.2 3.7-0.1 1.3-0.2 2.2-0.2z"/>
	<path id="Layer" class="s64" d="m42.9 44l-1.4 3.7q0 0 0 0 0 0 0 0 0 0 0 0 0 0 0 0-1.3 0.3-2.6 0.5c-0.3 0.1-0.6 0-0.9 0q-1 0.2-1.8 0.2c-0.7-0.1-0.5-0.6-0.3-1q0.5-1.3 0.7-2.6 0.4-0.4 0.9-0.5c0.6-0.1 1.3 0 1.8-0.1q1.8-0.1 3.6-0.2z"/>
	<path id="Layer" class="s65" d="m106.4 44.6q0.6 0.1 1.1 0.1c1 0.1 2 0.3 3 0.3 0.4 0.1 0.9 0.3 1.2 0.3q1.3-0.1 2.5 0.4-0.7 0.4-1.1 0.9 0 0.1 0 0.1-0.3 0.5 0 0.5-0.5 0.3-0.4 0.9-0.8 0.3-1.5 0.4c-1 0.2-2.1-0.3-3.1-0.2-0.8 0.1-1.5-0.2-2-0.7q-0.2-0.3-0.1-0.6 0.3-1.2 0.4-2.4z"/>
	<path id="Layer" class="s64" d="m23.5 46.1l-1.3 3.4q0 0.1 0 0.1 0 0 0 0 0 0 0 0-0.1 0-0.1 0c-1.2 0-2.4 0.3-3.6 0.5q-1 0.2-2 0-0.3-0.1-0.2-0.3l1.4-3.7q1 0.6 2.1 0.4 1.9-0.4 3.7-0.4z"/>
	<path id="Layer" class="s65" d="m123.8 46.5q0.4 0.6 2.1 2.7c0.5 0.7-0.8 0.6-1.1 0.6q-2.7-0.5-5.4-0.9 0 0 0 0 0 0-0.1 0 0 0 0 0 0 0 0 0l-2-2.4q0.7-0.2 1.3-0.1 1.2 0.2 1.9 0.2c1.1 0.1 2.2 0.3 3.3-0.1z"/>
	<path id="Layer" class="s66" d="m28.7 52.5c0.1-0.1 0.2-0.2 0.3-0.1h0.1c0.1 0 0.1 0.1 0.1 0.3l-1.7 4.7c0 0.2-0.2 0.2-0.3 0.2-0.1-0.1-0.2-0.2-0.2-0.3z"/>
	<path id="Layer" class="s53" d="m119.9 59.1l-5.3-0.8q0 0 0 0 0 0 0 0 0 0 0 0 0-0.1 0-0.1l0.5-5.2q0-0.1 0-0.1 0 0 0.1 0 0 0 0 0 0 0 0.1 0l4.7 6q0 0 0 0.1 0 0 0 0 0 0-0.1 0 0 0.1 0 0.1z"/>
	<path id="Layer" class="s53" d="m44.2 57q-0.3 0-0.2-0.2 0.3-1.1 0.7-2.1 0.1-0.2 0.2 0 0.8 1.1 1.9 1.9 0.2 0.2 0 0.2l-2.6 0.2q0 0 0 0z"/>
	<path id="Layer" class="s53" d="m67.4 60.8l-1.8-3.3q-0.2-0.2 0.1-0.2c2.9 0 5.4-0.2 7.7-2.2q0.1-0.1 0.1 0.1 0.1 0.7-0.6 0.6 0 0 0 0-0.1 0-0.1 0 0 0 0 0 0 0 0 0-0.4 0.3-0.8 0.7-2.1 2.2-4.2 4.3-0.2 0.3-0.4 0z"/>
	<path id="Layer" class="s67" d="m137.2 56.3q3.1 4.1 6.1 8.3c0.2 0.2 0.4 0.4-0.2 0.3q-5.8-0.8-11.7-1.6 0 0 0 0 0 0 0 0 0 0-0.1 0.1 0 0 0 0c-0.1 0.2 0 0.6-0.1 0.9-0.7 10.7-1.4 19.8-2.4 29.7q-0.1 0.3-0.3 0.2l-8.3-2.5q0.1-0.1 0.1-0.4 3.7 1.1 7.4 2.1 0.2 0.1 0.3 0.1 0.2 0 0.2-0.2 1.6-15 2.5-29.9c0-0.3-0.1-0.6 0.4-0.6q5.3 0.8 10.7 1.5 0.5 0.1 0.2-0.3-2.6-3.6-5.2-7.2 0.3-0.2 0.4-0.5z"/>
	<path id="Layer" fill-rule="evenodd" class="s53" d="m52.6 65.5c0.1 0 0.5-0.3 0.4 0.1q-1.1 3.6-3.3 10.6-0.2 0.4-0.5 1.2c-1.3 3.3-4.4 5.6-7.9 6.4q-1.4 0.3-6.3 1.4-3.7 0.8-11.1 2.7-0.7 0.2-1.5 0.1c-3.1-0.3-4.6-3.2-3.7-6 1.7-5.7 3.6-11.4 5.6-17 0.5-1.5 1.2-2.9 2.3-3.9 1.7-1.5 3.7-1.9 5.9-2.2q15.5-1.8 31.2-2.2 0.1 0 0.1 0 0 0 0 0 0 0 0 0 0 0 0 0l3.4 5.8q0.1 0.2 0.3 0l5.6-5.9q0 0 0.1 0 0 0 0 0 0 0 0 0 0 0 0 0 14.8-0.1 29.6 1.3 0 0 0 0 0 0 0 0 0.1 0 0.1 0 0 0.1 0 0.1 1.3 4.6 2.6 9.3 0.1 0.2 0.1 0.3 0.2 0.3 0.3 0l4.3-8.9q0 0 0 0 0-0.1 0-0.1 0 0 0 0 0 0 0.1 0 8.6 1 17.1 2.4 0.2 0 0.2 0.3-0.7 13.7-2.1 27.5 0 0.2-0.3 0.1-5.8-1.7-11.7-3.1 0 0-0.1 0 0 0 0 0 0 0 0 0 0-0.1 0-0.1l0.9-8.7q0-0.1 0-0.1 0 0 0 0 0 0 0-0.1 0 0 0 0c-0.1 0-0.2 0.1-0.2 0.1q-2.4 4-4.7 7.9 0 0.1 0 0.1 0 0-0.1 0 0 0 0 0 0 0 0 0-5-1-10-1.8 0 0 0 0 0 0 0 0 0 0 0 0 0 0 0 0-1.8-5.4-3.6-10.7c-0.1-0.3-0.2-0.1-0.3 0q-1 4.9-2 9.8 0 0.1-0.1 0.1 0 0 0 0 0 0 0 0 0 0-0.1 0-6-0.6-12-1-0.3 0-0.2-0.2 2.5-10.9 4.7-21.8 0.1-0.5-0.4-0.1-6.3 6.4-12.9 12.7 0 0.1 0 0.1-0.1 0-0.1 0 0 0 0 0 0 0 0 0l-2.3 9.1q0 0 0 0 0 0 0 0-0.1 0.1-0.1 0.1 0 0 0 0-6.4 0.1-12.8 0.6-0.2 0-0.2-0.2l2.9-10q0 0 0 0 0-0.1 0-0.1 0 0 0 0-0.1 0-0.1 0-2.9-4.8-5.8-9.6c-0.3-0.5-0.4-0.1-0.4 0.2q-0.5 1.6-1 3.2 0 0 0 0.1 0 0 0 0 0 0.1 0.1 0.1 0 0 0 0zm3.3-4.3l0.8 1.4q2.5 4.2 5.1 8.3 0 0 0 0 0 0 0 0 0 0 0 0 0 0 0 0.1l-2.3 8.1q-0.1 0.3 0.3 0.3l8.4-0.4q0 0 0 0 0 0 0 0 0 0 0 0 0-0.1 0.1-0.1l2-8.2q0.1 0 0.1 0 0 0 0 0 0 0 0 0 0 0 0 0l12.3-12.1q0.3-0.3-0.1-0.3l-8.4-0.1q0 0-0.1 0 0 0 0 0 0 0 0 0 0 0 0 0l-7.1 7.5q-0.2 0.2-0.3 0-0.1-0.1-0.2-0.2-2.1-3.6-4.1-7.1 0 0 0 0 0 0 0-0.1-0.1 0-0.1 0 0 0 0 0l-7.5 0.4q-0.4 0-0.2 0.3zm39.5 2.4q0.2-0.1 0.2 0l5.9 17.6q0 0 0 0 0 0 0 0 0 0.1 0 0.1 0 0 0 0l7.5 1.3q0 0 0 0 0 0 0 0 0 0 0.1 0 0-0.1 0-0.1 4.8-7.9 9-16.2 0-0.1 0.1-0.1 0 0 0 0 0 0 0.1 0 0 0 0 0.1 0 0 0 0l-1.7 17.9q0 0 0 0 0 0 0 0 0.1 0 0.1 0.1 0 0 0 0l7.7 2q0.3 0.1 0.3-0.2 1.1-11.5 1.8-23.2 0-0.3-0.1-0.4 0 0 0 0 0 0 0 0 0 0 0 0 0 0 0 0-7-1.1-14.1-2 0 0 0 0 0 0 0 0-0.1 0-0.1 0 0 0.1 0 0.1-2.9 6.4-6.2 12.5-0.2 0.4-0.3 0l-3.9-13.6q0 0 0 0 0-0.1 0-0.1 0 0 0 0-0.1 0-0.1 0-6.6-0.4-13.2-0.8-0.3 0-0.3 0.3-2 10.2-4.4 20.3 0 0 0 0 0 0.1 0 0.1 0 0 0 0 0.1 0 0.1 0l8.1 0.7q0 0 0.1 0 0 0 0 0 0 0 0-0.1 0 0 0 0zm-63.1 2.4q0 0 0 0 0 0 0 0 0.1 0 0.1 0 0 0 0 0 8.8-1.3 17.7-2 0 0 0 0 0 0 0 0 0.1 0 0.1 0 0-0.1 0-0.1l1.5-4.7q0 0 0 0 0-0.1 0-0.1 0 0 0 0 0 0-0.1 0c-0.1-0.2-0.3-0.1-0.6-0.1q-10.3 0.6-20.5 1.9-1.6 0.2-2.8 1.1c-1.5 1-2 2.4-2.5 4q-2.9 8.6-5.3 16c-0.4 1.1-0.7 2.8 0.4 3.6 0.8 0.6 2 0.5 2.9 0.2q7.9-2.1 16-3.7c3.8-0.7 6.8-2.7 8-6.6q1.2-3.7 2.3-7.4c0.2-0.5-0.3-0.4-0.6-0.4q-6.6 0.7-13.2 1.6-0.1 0-0.1 0 0 0 0 0 0 0 0 0 0 0 0 0c-0.4 1.3-1.6 3.5 0.4 4.2q0.5 0.1 1 0 1.5-0.2 3.1-0.4 0.3 0 0.2 0.3-0.4 1.3-0.9 2.6c-0.1 0.5-0.3 1-0.8 1.1q-4.7 0.8-9.4 1.7c-0.5 0.1-1.1 0-0.8-0.7q1.9-6.1 3.9-12.1zm-0.1 10.3q0 0 0 0 0 0 0.1 0 0 0 0 0 0 0 0.1 0 1.6-0.3 3.2-0.6 0.1 0 0.1-0.2 0 0 0 0 0 0 0 0 0 0 0 0-0.1 0-0.1 0-1.9-1.1-2.1-3.4 0-0.1 0-0.1-0.1 0-0.1 0 0 0 0 0 0 0 0 0.1 0 0 0 0-0.6 2-1.3 4 0 0.1 0.1 0.2z"/>
	<path id="Layer" fill-rule="evenodd" class="s68" d="m56.7 62.6q0.2-0.2 0.4-0.1 0 0 0 0 0 0 0 0 0 0 0 0 0 0 0 0.1l1 1.4 2.1 3.4 1.4 2.1q0 0 0 0 0 0 0 0 0 0 0 0 0.1 0 0.1 0 3-0.1 6-0.3c1.2-0.1 2.3-0.1 3.5 0q0 0 0 0 0 0 0.1 0 0 0 0 0 0 0 0 0 1.2-1.1 2.2-2.4l3.8-3.6 2.2-2.2q0.3-0.2-0.1-0.3c-1.8-0.4-3.4-0.4-5.6-0.3q-0.6 0-0.9 0.2c-1 0.3-1.9 1.5-2.5 2.3q-1.8 1.8-3.5 3.6c-0.4 0.5-0.4-0.2-0.5-0.3q-0.9-1.5-1.8-2.9l-1.5-2.7q0 0 0 0 0 0 0 0-0.1 0-0.1 0 0 0 0 0-0.5-0.2-1.1-0.1c-1.9 0.2-4.2-0.4-6 0.7l-1.3-2.2q-0.2-0.3 0.2-0.3l7.5-0.4q0 0 0 0 0 0 0.1 0 0 0.1 0 0.1 0 0 0 0 2 3.5 4.1 7.1 0.1 0.1 0.2 0.2 0.1 0.2 0.3 0l7.1-7.5q0 0 0 0 0 0 0 0 0 0 0 0 0.1 0 0.1 0l8.4 0.1q0.4 0 0.1 0.3l-12.3 12.1q0 0 0 0 0 0 0 0 0 0 0 0 0 0-0.1 0l-2 8.2q-0.1 0-0.1 0.1 0 0 0 0 0 0 0 0 0 0 0 0l-8.4 0.4q-0.4 0-0.3-0.3l2.3-8.1q0-0.1 0-0.1 0 0 0 0 0 0 0 0 0 0 0 0-2.6-4.1-5.1-8.3zm3.6 16.1q0.2 0.1 0.3 0.1 3.6-0.3 7.1-0.3 0 0 0-0.1 0 0 0.1 0 0 0 0 0 0 0 0 0l2-7.7q0-0.1 0-0.1 0 0 0 0 0 0 0 0 0-0.1-0.1-0.1c-0.4-0.1-0.7-0.3-1.2-0.3q-2.6 0.1-5.3 0.4c-0.7 0-0.9 0.9-1.1 1.5-0.5 2.2-1.2 4.4-1.8 6.5q0 0 0 0 0 0.1 0 0.1 0 0 0 0 0 0 0 0z"/>
	<path id="Layer" class="s53" d="m108.9 58.8l-2.7 5.8q0 0-0.1 0 0 0 0 0 0 0 0 0-0.1 0-0.1-0.1l-1.7-6q0 0 0-0.1 0 0 0 0 0 0 0 0 0.1 0 0.1 0l4.4 0.3q0 0 0 0.1 0.1 0 0.1 0 0 0 0 0 0 0 0 0z"/>
	<path id="Layer" fill-rule="evenodd" class="s68" d="m95.6 63.6c0.1-0.5 0.3-0.3 0.4 0q0.5 1.5 1.1 3 0.4 1.1 0.6 2.2c0.1 0.4 0.6 0.7 0.9 0.8q2.1 0.4 5.4 0.8c0.3 0 0.4-0.2 0.3-0.5q-0.4-1.3-0.8-2.6-0.5-2.1-1.1-4.1c-0.1-0.4-0.1-0.6-0.5-0.7-1.9-0.3-4.1-0.5-5.9-0.6q-0.6-0.1-1.2-0.2c-2-0.4-3.9-0.4-6.1-0.5q-0.3 0-0.5 0.4 0 0 0 0 0 0 0 0 0 0-0.1 0 0 0 0 0-0.1 0.1-0.2 0.2-0.1 0.6-0.2 1.3-0.2 1.9-0.6 3.7c-0.1 0.5-0.2 0.9 0.4 1q3.1 0.3 6.2 0.5 0.2 0 0.2-0.2l0.9-4.5q0.1-0.4 0.5-0.2 0 0 0 0 0 0 0.1 0 0 0 0 0.1 0 0 0 0l-3.3 16.4q0 0 0 0 0 0 0 0-0.1 0-0.1 0 0 0 0 0l-8.1-0.6q-0.1 0-0.1 0 0 0 0-0.1 0 0 0 0 0 0 0 0 2.3-10.2 4.3-20.4 0.1-0.3 0.4-0.3 6.6 0.4 13.2 0.9 0 0 0 0 0 0 0 0 0.1 0 0.1 0 0 0 0 0l3.9 13.7q0.1 0.3 0.3 0 3.3-6.2 6.2-12.6 0 0 0 0 0 0 0 0 0 0 0.1 0 0 0 0 0 7 0.8 14 1.9 0 0 0.1 0 0 0 0 0 0 0 0 0 0 0 0 0 0.1 0.2 0.1 0.5-0.7 11.6-1.9 23.2 0 0.3-0.2 0.2l-7.7-2.1q0 0-0.1 0 0 0 0 0 0 0 0 0 0-0.1 0-0.1l1.6-17.9q0 0 0 0 0 0 0 0 0 0 0 0 0-0.1 0-0.1-0.1 0-0.2 0.1-4.1 8.3-9 16.3 0 0 0 0 0 0 0 0 0 0 0 0 0 0-0.1 0l-7.4-1.3q0 0 0 0 0 0 0 0 0 0-0.1 0 0 0 0 0zm12.3 7.4c0.3 0.1 0.5 0.3 0.9 0.3q2 0.5 4.1 1c0.4 0.2 0.9 0.1 1.3 0.2q0 0 0 0 0.1 0 0.1 0 0 0 0 0 0-0.1 0-0.1 1.6-2.9 3.2-5.9c0.1-0.2 0.3-0.5 0-0.7-1.1-0.7-2.1-0.8-3.6-1q-1.5-0.3-2.9-0.5 0 0 0 0-0.1 0-0.1 0 0 0 0 0 0 0.1 0 0.1-1.3 3.2-3.1 6.3-0.1 0.2 0.1 0.3zm10.3 2.2c-0.1 0.6 0.2 0.8 0.7 0.9 0.6 0.3 1.4 0.5 2.1 0.8 1.1 0.6 2.6 1.3 3.8 1.3q0.3 0 0.3-0.2 0.1-3.4 0.5-6.7 0 0 0-0.1 0 0 0 0 0 0 0 0-0.1 0-0.1 0-2.2-0.6-4.4-1.1c-0.9-0.3-1.6-0.3-2.4-0.2q0 0 0 0 0 0 0 0-0.1 0-0.1 0 0 0 0 0.1-0.1 2.6-0.4 5.2zm-32.3-0.4l-1.3 5.7q-0.1 0.2 0.2 0.2 3.2 0.3 6.4 0.5 0.3 0 0.4 0 0 0 0 0 0 0 0.1 0 0 0 0 0 0 0 0-0.1l1.1-5.6 0.4-1.9q0 0 0 0 0 0 0 0-0.1 0-0.1-0.1 0 0 0 0c-0.5 0-0.9-0.2-1.4-0.2q-2-0.2-4.1-0.4-0.6 0-1.2 0 0 0 0 0-0.1 0-0.1 0.1 0 0 0 0 0 0 0 0zm14.5 3.2l1.5 4.6q0 0 0 0 0 0 0.1 0 0 0.1 0 0.1 0 0 0 0l6.7 1.2q0 0 0.1 0 0 0 0 0 0 0 0 0 0 0 0-0.1l1.9-3.2 1.4-2.3q0 0 0 0 0 0 0 0 0 0 0 0 0 0 0 0c-0.3-0.7-0.8-0.9-1.5-1.2-1.4-0.4-2.8-0.9-4.4-0.9q0 0 0 0 0 0 0 0 0 0 0 0 0 0-0.1 0l-0.3 0.4q-0.2 0.2-0.2 0-0.1-0.5-0.3-0.9 0 0 0 0 0 0-0.1-0.1 0 0 0 0 0 0 0 0c-0.4 0-0.7 0.1-1.1 0q-1.3-0.3-2.6-0.7c-0.7-0.2-1.2-0.1-1.9 0.1q-0.2 0-0.2 0.3zm17.1 7.8q3.1 0.7 6.1 1.7c0.3 0 0.6 0.1 0.7-0.3q0.1-1.7 0.3-3.7 0 0 0 0 0 0 0 0 0 0 0 0-0.1-0.1-0.1-0.1-1.2-0.9-2.5-1.8-0.5-0.2-0.9-0.3 0 0 0 0 0 0 0 0 0 0 0 0 0 0 0 0l-0.8-0.5q0 0 0 0-0.4 0-0.7-0.3-0.7-0.4-1.4-0.6-0.3-0.1-0.3 0.2l-0.5 5.6q0 0 0 0 0 0 0 0.1 0 0 0 0 0 0 0.1 0z"/>
	<path id="Layer" fill-rule="evenodd" class="s68" d="m32.3 65.9q-2 6-4 12.1c-0.2 0.6 0.3 0.8 0.9 0.7q4.6-0.9 9.3-1.7c0.6-0.1 0.7-0.6 0.9-1.1q0.5-1.3 0.9-2.7 0-0.2-0.2-0.2-1.6 0.2-3.2 0.4-0.4 0.1-0.9-0.1c-2-0.6-0.9-2.8-0.5-4.1q0 0 0 0 0.1 0 0.1 0 0 0 0 0 0 0 0 0 6.6-0.9 13.3-1.6c0.3 0 0.7-0.1 0.6 0.4q-1.2 3.7-2.4 7.4c-1.2 3.9-4.2 5.9-8 6.6q-8 1.6-16 3.7c-0.9 0.3-2 0.4-2.8-0.2-1.1-0.8-0.8-2.5-0.5-3.6q2.4-7.4 5.3-16c0.6-1.6 1.1-3.1 2.5-4.1q1.3-0.8 2.8-1 10.3-1.3 20.6-1.9c0.2 0 0.4-0.1 0.6 0.1q0 0 0 0 0 0 0 0 0 0 0 0.1 0 0 0 0l-1.5 4.7q0 0 0 0.1 0 0 0 0 0 0 0 0 0 0-0.1 0-8.8 0.7-17.7 2 0 0 0 0 0 0 0 0 0 0 0 0 0 0 0 0zm-7.8 3.3q-1.6 4.7-3.1 9.4c-0.2 0.4 0.1 0.5 0.4 0.3q2.2-1.3 2.7-1.5 1.7-0.6 3.4-1.4c0.6-0.2 0.8-0.4 0.9-1q0.8-2.7 2.1-6.5c0.4-0.9 0.6-2.5 1.6-3q0.2-0.1 0.7-0.2 4.4-0.7 8.9-1c0.5 0 1.3-0.2 1.9-0.3q2.7-0.2 5.4-0.4c0.2 0 0.4 0 0.5-0.3q0.1-0.2 0.2-0.5 0-0.2-0.2-0.3-1.6-0.3-3.1 0c-0.8 0.2-1.6 0.2-2.2 0.3q-1.5 0.3-2 0.3c-1.7 0-3.2 0.3-5 0.7q-0.9 0.1-1.8 0.1 0 0 0 0 0 0 0 0.1 0 0 0 0-0.1 0-0.1 0-0.3 0.2-0.5 0.2c-1.1 0.2-2.5 0.2-3.4 0.5q-0.9 0.2-1.8 0.5c-0.5 0.3-1.1 0.2-1.7 0.3q-0.8 0.1-2.4 0.5-0.3 0.1-0.5 0.2 0 0 0 0 0 0 0 0 0 0 0 0 0 0 0 0zm11.3 3.5c0.6 0.4 1.7 0.2 2.4 0 0.5-0.1 1-0.5 1.5-0.6q3.6-0.7 7.2-1.4c0.4-0.1 0.7-0.1 1.1-0.1q0 0 0 0 0 0 0.1 0 0-0.1 0-0.1 0 0 0 0c0.2-0.3 0.3-0.7 0.4-1.1q0.1-0.5 0.3-1 0.1-0.3-0.2-0.3-6.3 0.6-12.6 1.6 0 0 0 0 0 0 0 0 0 0 0 0 0 0 0 0.1c-0.4 0.7-1.1 2.3-0.2 2.9zm-10.1 7.9q0.2 0 0 0.1-0.6 0.4-1.3 0.8c-0.8 0.5-3 2.4-2.9 3.6q0 0 0 0.1 0 0 0 0 0.1 0 0.1 0 0 0 0 0c0.5 0.1 0.9 0 1.4-0.1 4.6-1.2 9.2-2.3 13.9-3.2q2.4-0.5 3-0.7c3.2-0.7 5.8-2.9 6.7-6 0.2-0.9-0.3-1-1-0.9-1 0.3-2 0.6-3 0.7-0.8 0-2.3 0.3-2.7 1.2-0.4 1.3-1.3 1.3-2.6 1.6q-4.1 0.6-8.2 1.5c-0.3 0.1-0.8-0.1-1.2 0-0.6 0.1-1 0.3-1.5 0.7q-0.5 0.3-0.9 0.6 0 0 0 0 0 0 0 0 0 0 0 0 0 0 0 0v0.1q0 0 0 0 0 0 0.1 0 0 0 0 0 0 0 0 0 0-0.1 0.1-0.1z"/>
	<path id="Layer" class="s69" d="m77.3 63.2c-1.1-0.9-2.2-0.4-3.5-0.5-1.1 0-2.4 0-3.4 0.2 0.6-0.8 1.5-2 2.5-2.3q0.3-0.2 0.9-0.2c2.2-0.1 3.8-0.1 5.6 0.3q0.4 0.1 0.1 0.3z"/>
	<path id="Layer" class="s69" d="m64.6 63.3q-3.3 0-6.5 0.7l-1-1.4q0-0.1 0-0.1 0 0 0 0 0 0 0 0 0 0 0 0-0.2-0.1-0.4 0.1l-0.8-1.4c1.8-1.1 4.1-0.5 6-0.7q0.6-0.1 1.1 0.1 0 0 0 0 0 0 0.1 0 0 0 0 0 0 0 0 0z"/>
	<path id="Layer" class="s70" d="m103.5 67.3q-0.3-0.2-0.5-0.4 0 0 0 0 0 0 0 0 0 0 0-0.1 0 0 0 0-0.3 0-0.7 0-1.3-0.1-4.1-0.5-0.2-0.1-0.3-0.2 0 0 0 0-0.1 0-0.1 0 0 0 0 0 0 0 0 0-0.4 0.1-0.7 0.5-0.6-1.5-1.1-3c-0.1-0.3-0.3-0.5-0.4 0q-0.1-0.2-0.2-0.1 0 0 0 0 0-0.1 0-0.1-0.1 0-0.1 0 0 0 0 0-0.4-0.2-0.5 0.2-3.5-0.6-7.1-0.5 0.1-0.7 0.2-1.3 0.1-0.1 0.2-0.2 0 0 0 0 0.1 0 0.1 0 0 0 0 0 0 0 0 0 0.2-0.4 0.5-0.4c2.2 0.1 4.1 0.1 6.1 0.5q0.6 0.1 1.2 0.2c1.8 0.1 4 0.3 5.9 0.6 0.4 0.1 0.4 0.3 0.5 0.7q0.6 2 1.1 4.1z"/>
	<path id="Layer" class="s48" d="m31.2 89.8l0.5 0.3q-3.3 0.8-6.6 1.7-1 0.2-1.6 0.3-2.5 0.1-4.6-1c-3.7-2-4.8-6.3-3.6-10.1q2.9-9.1 6-18.1 0.1-0.4-0.3-0.4-0.3 0-0.9 0.1-2.6 0.3-5.3 0.6l-0.1-0.3 7.5-1.1q0.3 0 0.2 0.3c-0.2 0.3-0.4 0.7-0.5 1q-3.1 9-6 18.1c-0.5 1.6-0.7 3-0.4 4.6 1.1 4.4 5.3 6.6 9.6 5.5q4.2-1.1 6.1-1.5z"/>
	<path id="Layer" class="s69" d="m30.9 68.5q-0.8-0.4-1.8-0.2-2.2 0.4-3.1 0.6 0 0-0.2 0.1-0.1 0-0.1 0 0 0.1 0 0.1 0 0 0 0 0 0 0 0-0.6-0.1-1.2 0.1l0.9-3q0 0 0 0 0 0 0 0 0 0 0 0 0 0 0 0 0.2-0.1 0.5-0.2 1.6-0.4 2.4-0.5c0.6-0.1 1.2 0 1.7-0.3q0.9-0.3 1.8-0.5c0.9-0.3 2.3-0.3 3.4-0.5q0.2 0 0.5-0.2 0 0 0.1 0 0 0 0 0 0-0.1 0-0.1 0 0 0 0 0.9 0 1.8-0.1c1.8-0.4 3.3-0.7 5-0.7q0.5 0 2-0.3c0.6-0.1 1.4-0.1 2.2-0.3q1.5-0.3 3.1 0 0.2 0.1 0.2 0.3-0.1 0.3-0.2 0.5c-0.1 0.3-0.3 0.3-0.5 0.3q-2.7 0.2-5.4 0.4c-0.6 0.1-1.4 0.3-1.9 0.3q-4.5 0.3-8.9 1-0.5 0.1-0.7 0.2c-1 0.5-1.2 2.1-1.6 3z"/>
	<path id="Layer" class="s71" d="m77.3 63.2l-3.8 3.6q-0.3 0.1-0.6 0.4 0 0 0 0 0 0 0 0 0 0 0 0 0 0 0 0-4.5 0-8.9 0.3-1.1 0-3.8-0.1l-2.1-3.4q3.2-0.7 6.5-0.7 0.9 1.4 1.8 2.9c0.1 0.1 0.1 0.8 0.5 0.3q1.7-1.8 3.5-3.6c1-0.2 2.3-0.2 3.4-0.2 1.3 0.1 2.4-0.4 3.5 0.5z"/>
	<path id="Layer" class="s71" d="m87.7 63.1q3.6-0.1 7.1 0.5l-0.9 4.5q0 0.2-0.2 0.2-3.1-0.2-6.2-0.5c-0.6-0.1-0.5-0.5-0.4-1q0.4-1.8 0.6-3.7z"/>
	<path id="Layer" class="s71" d="m107.8 71q-0.2-0.1 0-0.3 1.7-3.1 3-6.3 0 0 0 0 0.1 0 0.1-0.1 0 0 0 0 0 0 0 0 1.5 0.2 2.9 0.5c1.6 0.2 2.5 0.4 3.6 1 0.4 0.3 0.1 0.5 0 0.8q-1.6 2.9-3.2 5.9 0 0 0 0 0 0 0 0 0 0 0 0 0 0-0.1 0c-0.4 0-0.8 0-1.3-0.1q-2-0.5-4.1-1c-0.3-0.1-0.6-0.3-0.9-0.4z"/>
	<path id="Layer" class="s72" d="m103.5 67.3q0.4 1.3 0.8 2.6c0.1 0.3 0 0.5-0.3 0.5q-3.3-0.4-5.4-0.8c-0.3-0.1-0.8-0.4-0.9-0.8q-0.2-1.1-0.6-2.2 0.3-0.4 0.7-0.5 0 0 0 0 0 0 0 0 0 0 0.1 0 0 0 0 0 0.1 0.1 0.3 0.2 2.8 0.4 4.1 0.5 0.4 0 0.7 0 0 0 0 0 0 0.1 0 0.1 0 0 0 0 0 0 0 0 0.2 0.2 0.5 0.4z"/>
	<path id="Layer" class="s69" d="m73.5 66.8q-1 1.3-2.2 2.4 0 0 0 0 0 0 0 0-0.1 0-0.1 0 0 0 0 0c-1.2-0.1-2.3-0.1-3.5 0q-3 0.2-6 0.3 0 0-0.1 0 0 0 0 0 0 0 0 0 0 0 0 0l-1.4-2.1q2.7 0.1 3.8 0.1 4.4-0.3 8.9-0.3 0 0 0 0 0 0 0 0 0 0 0 0 0 0 0 0 0.3-0.3 0.6-0.4z"/>
	<path id="Layer" class="s71" d="m118.8 74.2c-0.4-0.2-0.8-0.4-0.7-1q0.4-2.6 0.5-5.2 0 0 0-0.1 0 0 0 0 0 0 0 0 0 0 0.1 0c0.8-0.1 1.4 0 2.3 0.2q2.3 0.6 4.5 1.1 0 0 0 0 0 0 0 0 0 0.1 0 0.1 0 0 0 0-0.3 3.3-0.5 6.7 0 0.2-0.2 0.2c-1.3 0-2.7-0.7-3.9-1.3-0.7-0.3-1.4-0.5-2.1-0.7z"/>
	<path id="Layer" class="s73" d="m35.8 72.7c-0.9-0.6-0.2-2.2 0.2-2.9q0 0 0 0 0-0.1 0-0.1 0 0 0 0 0.1 0 0.1 0 6.2-1 12.5-1.6 0.3 0 0.2 0.3-0.1 0.5-0.3 1.1c-0.1 0.3-0.1 0.7-0.4 1q0 0 0 0.1 0 0 0 0 0 0 0 0 0 0 0 0c-0.4 0-0.8 0-1.2 0.1q-3.5 0.8-7.1 1.4c-0.5 0.1-1.1 0.5-1.6 0.7-0.7 0.2-1.7 0.3-2.4-0.1z"/>
	<path id="Layer" class="s71" d="m30.9 68.5q-1.3 3.8-2.1 6.5c-0.1 0.6-0.3 0.8-0.9 1q-1.7 0.8-3.4 1.4-0.5 0.2-2.7 1.5c-0.3 0.2-0.6 0.1-0.4-0.3q1.5-4.7 3.1-9.4 0.6-0.2 1.2-0.1 0 0 0 0 0 0 0 0 0 0 0-0.1 0 0 0.1 0 0.2-0.1 0.2-0.1 0.9-0.2 3.1-0.6 1-0.2 1.8 0.2z"/>
	<path id="Layer" class="s48" d="m90.1 85.6l-0.1 0.5q-6-0.5-12-0.9c-0.4 0-1 0-1.5-0.1q0 0 0 0-0.1 0-0.1 0 0 0 0 0 0-0.1 0-0.1 1.5-6.7 3.1-13.5 0.1-0.3 0.1-0.6 0 0 0-0.1-0.1 0-0.1 0 0 0 0 0 0 0 0 0-0.2-0.1-0.3 0.1-1.5 1.4-2.9 2.8c-0.2 0.2-0.6 0.4-0.6 0.7q-1.5 5.4-2.9 10.7 0 0 0 0 0 0 0 0 0 0.1 0 0.1 0 0-0.1 0c-0.6 0-1.4 0-2 0q-0.7 0.1-1.4 0.1-2.9 0.1-5.9 0.2-1 0-4.8 0.3v-0.4q6.9-0.6 13.8-0.7 0 0 0 0 0 0 0 0 0 0 0 0 0 0 0 0l2.7-10.5q0 0 0 0 0 0 0 0 0 0 0 0 0 0 0 0 2.6-2.5 5.2-5c0.2-0.2 0.4-0.4 0.3 0.2q-1.7 7.5-3.5 15 0 0.3 0.3 0.3z"/>
	<path id="Layer" class="s74" d="m60.3 78.7q0 0 0 0 0 0 0 0 0 0 0-0.1 0 0 0 0c0.6-2.1 1.3-4.3 1.8-6.5 0.2-0.6 0.4-1.5 1.1-1.5q2.7-0.3 5.3-0.4c0.5 0 0.8 0.2 1.2 0.3q0.1 0 0.1 0.1 0 0 0 0 0 0 0 0 0 0 0 0.1l-2 7.7q0 0 0 0 0 0 0 0-0.1 0-0.1 0 0 0.1 0 0.1-3.5 0-7.1 0.3-0.1 0-0.3-0.1z"/>
	<path id="Layer" class="s50" d="m58.6 85.4v0.4q-2.8 0.2-5.7 0.4c-0.3 0-0.6 0.1-0.9 0q0 0 0 0-0.1 0-0.1 0 0 0 0 0 0-0.1 0-0.1 1.7-6 3.4-11.9c0.2-0.8 0.8-1.7 0-2.4q0 0 0 0-0.1 0-0.1 0 0 0 0 0-0.1 0-0.1 0c-0.7 2.4-1.4 4.8-2.3 7.2-1.7 4.6-6.2 8-11 9q-5.1 1-10.1 2.1l-0.5-0.3q4.9-1.2 9.7-2.2 1.4-0.3 2-0.4c3.7-1.2 7.3-3.8 8.9-7.4q0.4-0.8 0.9-2.3 0.5-1.6 2.2-7c0.1-0.2 0.2-0.1 0.3 0q0.7 1 1.3 2 0 0 0 0 0 0 0 0 0 0 0 0 0 0 0 0.1-1.8 6.3-3.7 12.7c-0.1 0.4 0 0.4 0.4 0.4q2.7-0.2 5.4-0.3z"/>
	<path id="Layer" class="s75" d="m92.8 73.6q-1.5-0.3-3-0.5c-1.2-0.1-2.6-0.3-4-0.3l0.4-1.8q0 0 0 0 0.1 0 0.1 0 0 0 0 0 0 0 0 0 0.6-0.1 1.3 0 2 0.2 4.1 0.3c0.4 0 0.9 0.2 1.3 0.3q0 0 0.1 0 0 0 0 0 0 0 0 0 0 0.1 0 0.1z"/>
	<path id="Layer" class="s54" d="m32.1 76.2q-0.1-0.1 0-0.2 0.7-2 1.3-4 0 0 0-0.1 0 0 0 0 0 0 0 0 0 0 0 0 0.1 0 0.1 0.1 0.1 2.3 2.1 3.4 0 0 0 0 0 0 0 0 0 0 0 0 0 0 0 0 0.1 0.1 0 0.2-1.7 0.3-3.3 0.6 0 0 0 0-0.1 0-0.1 0 0 0 0 0-0.1 0-0.1 0z"/>
	<path id="Layer" class="s74" d="m85.8 72.8c1.4 0 2.8 0.2 4 0.3q1.5 0.2 3 0.5l-1.2 5.6q0 0 0 0 0 0 0 0 0 0 0 0.1 0 0-0.1 0-0.1 0-0.3-0.1-3.3-0.2-6.5-0.5-0.2 0-0.2-0.2z"/>
	<path id="Layer" class="s75" d="m110.6 78.6q-1.5-0.4-3.1-0.8c-1.8-0.4-3.6-1-5.6-1.6q-0.8-0.3-1.6-0.2l-0.9-2.7q-0.1-0.3 0.1-0.3c0.7-0.2 1.2-0.2 1.9-0.1q1.3 0.4 2.7 0.7c0.3 0.1 0.7 0 1 0q0 0 0 0 0.1 0.1 0.1 0.1 0 0 0 0 0 0 0 0 0.2 0.4 0.3 0.9 0 0.2 0.2 0.1l0.4-0.4q0-0.1 0-0.1 0 0 0 0 0 0 0 0 0 0 0 0c1.6 0 3 0.5 4.4 1 0.8 0.2 1.3 0.4 1.5 1.1q0 0 0 0 0 0 0 0 0 0 0 0 0 0.1 0 0.1z"/>
	<path id="Layer" class="s76" d="m25.7 80.6q0 0-0.1 0.1 0 0 0 0 0 0 0 0 0 0 0 0 0 0 0 0h-0.1q0 0 0 0 0 0 0-0.1 0 0 0 0 0 0 0 0 0.5-0.3 0.9-0.6c0.5-0.4 1-0.6 1.6-0.7 0.4-0.1 0.8 0.1 1.1 0.1q4.1-1 8.2-1.6c1.4-0.2 2.2-0.3 2.7-1.6 0.3-0.9 1.8-1.2 2.6-1.2 1-0.1 2.1-0.4 3-0.6 0.8-0.2 1.3-0.1 1 0.8-0.9 3.1-3.5 5.3-6.6 6.1q-0.7 0.1-3.1 0.6c-4.6 0.9-9.3 2-13.9 3.2-0.5 0.2-0.9 0.2-1.4 0.1q0 0 0 0 0 0 0 0 0 0 0 0 0 0 0 0c-0.2-1.3 2-3.2 2.9-3.7q0.6-0.3 1.2-0.8 0.2-0.1 0-0.1z"/>
	<path id="Layer" class="s74" d="m110.6 78.6l-1.8 3.3q-0.1 0-0.1 0 0 0 0 0 0 0 0 0 0 0-0.1 0l-6.7-1.2q0 0 0 0 0 0 0 0 0-0.1 0-0.1 0 0 0 0l-1.6-4.6q0.8-0.1 1.6 0.2c2 0.6 3.8 1.2 5.6 1.6q1.6 0.4 3.1 0.8z"/>
	<path id="Layer" class="s75" d="m117.3 83.8q0 0 0 0 0 0 0 0 0 0 0-0.1 0 0 0 0l0.5-5.6q0-0.3 0.3-0.2 0.7 0.2 1.3 0.6 0.4 0.3 0.8 0.3 0 0 0 0l0.7 0.5q0 0 0.1 0 0 0 0 0 0 0 0 0 0 0 0 0 0.4 0.1 0.9 0.4 1.3 0.8 2.5 1.7 0 0.1 0 0.1 0 0 0 0 0 0 0 0 0 0 0 0-0.1 2-0.3 3.7c0 0.4-0.3 0.3-0.6 0.3q-3.1-1-6.2-1.7z"/>
</svg>